<?xml version="1.0" encoding="UTF-8" standalone="no"?>
<svg
   xmlns:dc="http://purl.org/dc/elements/1.1/"
   xmlns:cc="http://creativecommons.org/ns#"
   xmlns:rdf="http://www.w3.org/1999/02/22-rdf-syntax-ns#"
   xmlns:svg="http://www.w3.org/2000/svg"
   xmlns="http://www.w3.org/2000/svg"
   xmlns:xlink="http://www.w3.org/1999/xlink"
   xmlns:sodipodi="http://sodipodi.sourceforge.net/DTD/sodipodi-0.dtd"
   xmlns:inkscape="http://www.inkscape.org/namespaces/inkscape"
   width="24"
   height="24"
   viewBox="0 0 24 24"
   fill="none"
   stroke="currentColor"
   stroke-width="2"
   stroke-linecap="round"
   stroke-linejoin="round"
   class="feather feather-thermometer"
   version="1.1"
   id="svg2633"
   sodipodi:docname="qagate.svg"
   inkscape:version="0.92.3 (2405546, 2018-03-11)">
  <metadata
     id="metadata2639">
    <rdf:RDF>
      <cc:Work
         rdf:about="">
        <dc:format>image/svg+xml</dc:format>
        <dc:type
           rdf:resource="http://purl.org/dc/dcmitype/StillImage" />
        <dc:title></dc:title>
      </cc:Work>
    </rdf:RDF>
  </metadata>
  <defs
     id="defs2637">
    <linearGradient
       inkscape:collect="always"
       id="linearGradient4787">
      <stop
         style="stop-color:#fd8900;stop-opacity:1"
         offset="0"
         id="stop4783" />
      <stop
         style="stop-color:#c32300;stop-opacity:1"
         offset="1"
         id="stop4785" />
    </linearGradient>
    <linearGradient
       inkscape:collect="always"
       xlink:href="#linearGradient4787"
       id="linearGradient4791"
       gradientUnits="userSpaceOnUse"
       x1="5.2058544"
       y1="3.910959"
       x2="15.16534"
       y2="14.380107" />
    <filter
       inkscape:collect="always"
       style="color-interpolation-filters:sRGB"
       id="filter4976"
       x="-0.29328035"
       width="1.5865607"
       y="-0.41359931"
       height="1.8271986">
      <feGaussianBlur
         inkscape:collect="always"
         stdDeviation="0.91101197"
         id="feGaussianBlur4978" />
    </filter>
    <linearGradient
       inkscape:collect="always"
       xlink:href="#linearGradient4787"
       id="linearGradient5014"
       gradientUnits="userSpaceOnUse"
       x1="5.2058544"
       y1="3.910959"
       x2="15.16534"
       y2="14.380107" />
  </defs>
  <sodipodi:namedview
     pagecolor="#ffffff"
     bordercolor="#666666"
     borderopacity="1"
     objecttolerance="10"
     gridtolerance="10"
     guidetolerance="10"
     inkscape:pageopacity="0"
     inkscape:pageshadow="2"
     inkscape:window-width="1983"
     inkscape:window-height="1097"
     id="namedview2635"
     showgrid="false"
     inkscape:zoom="32.38086"
     inkscape:cx="9.8549654"
     inkscape:cy="11.534588"
     inkscape:window-x="65"
     inkscape:window-y="27"
     inkscape:window-maximized="1"
     inkscape:current-layer="g5012" />
  <ellipse
     style="fill:#ffdfbe;fill-opacity:0.58737862;stroke:none;stroke-width:0.2;stroke-linecap:square;stroke-linejoin:round;stroke-miterlimit:4;stroke-dasharray:none;stroke-opacity:0.62621328;paint-order:markers fill stroke;filter:url(#filter4976)"
     id="path4870"
     cx="6.6817923"
     cy="7.6377339"
     rx="3.7985404"
     ry="2.5400808"
     transform="rotate(-15)" />
  <g
     id="g5012"
     transform="matrix(1.2299913,0,0,1.2017027,-1.8576766,-2.0148)">
    <path
       sodipodi:nodetypes="ccccc"
       inkscape:connector-curvature="0"
       id="path3976"
       d="M 3.150009,7.7403947 C 4.0787496,4.644498 5.7797067,2.0726053 11.272091,2.0734668 16.5111,2.0653693 19.064554,4.30642 19.394172,7.7403947 20.029719,13.582332 18.742761,16.935723 11.272091,21.251462 6.3173205,18.425921 2.1317658,15.520046 3.150009,7.7403947 Z"
       style="fill:url(#linearGradient5014);fill-opacity:1;stroke:#840900;stroke-width:0.40000001;stroke-linecap:round;stroke-linejoin:round;stroke-miterlimit:4;stroke-dasharray:none;stroke-opacity:1;paint-order:normal" />
    <path
       sodipodi:nodetypes="ccc"
       inkscape:connector-curvature="0"
       id="path4793"
       d="m 6.0414093,16.176813 c 1.74536,-1.560409 2.3491741,-2.981761 5.1997997,-3.850376 4.583915,-1.18849 2.419431,-2.117997 7.473551,-2.100006"
       style="fill:none;stroke:#ffffff;stroke-width:1.89999998;stroke-linecap:square;stroke-linejoin:miter;stroke-miterlimit:4;stroke-dasharray:none;stroke-opacity:0.62621328;paint-order:markers fill stroke" />
    <path
       sodipodi:nodetypes="ccc"
       inkscape:connector-curvature="0"
       id="path4793-2"
       d="M 4.5843713,14.814367 C 6.0770597,13.822936 6.5255347,11.612547 9.8748088,10.243327 14.458724,9.0548374 14.145177,8.1510293 19.199297,8.1690203"
       style="fill:none;stroke:#ffffff;stroke-width:0.80000001;stroke-linecap:square;stroke-linejoin:miter;stroke-miterlimit:4;stroke-dasharray:none;stroke-opacity:0.62621304;paint-order:markers fill stroke" />
    <path
       sodipodi:nodetypes="ccc"
       inkscape:connector-curvature="0"
       id="path4793-2-7"
       d="M 3.0090117,9.5147384 C 4.3925142,9.5496547 5.4534879,7.2492505 9.5015518,6.294937 14.085467,5.1064474 16.466533,5.0725312 17.444814,3.8673736"
       style="fill:none;stroke:#ffffff;stroke-width:0.40000001;stroke-linecap:square;stroke-linejoin:miter;stroke-miterlimit:4;stroke-dasharray:none;stroke-opacity:0.62621304;paint-order:markers fill stroke" />
    <path
       sodipodi:nodetypes="ccc"
       inkscape:connector-curvature="0"
       id="path4793-2-7-0"
       d="M 3.1056693,8.193358 C 4.3909045,8.3374603 5.8667847,5.9715445 9.9148486,5.017231 14.498764,3.8287414 15.649545,4.4886956 16.627826,3.2835379"
       style="fill:none;stroke:#ffffff;stroke-width:0.30000001;stroke-linecap:square;stroke-linejoin:miter;stroke-miterlimit:4;stroke-dasharray:none;stroke-opacity:0.62621304;paint-order:markers fill stroke" />
    <path
       sodipodi:nodetypes="ccc"
       inkscape:connector-curvature="0"
       id="path4793-2-7-9"
       d="m 9.2309993,20.029112 c 0.8594097,-1.253474 -0.7219159,-1.697721 3.3261477,-2.652035 4.583915,-1.188489 3.444527,-2.619587 5.091637,-1.130124"
       style="fill:none;stroke:#ffffff;stroke-width:0.2;stroke-linecap:square;stroke-linejoin:miter;stroke-miterlimit:4;stroke-dasharray:none;stroke-opacity:0.62621304;paint-order:markers fill stroke" />
    <path
       sodipodi:nodetypes="ccc"
       inkscape:connector-curvature="0"
       id="path4793-2-7-3"
       d="M 3.1493437,7.4399751 C 4.4454975,7.8897979 5.5938199,5.1744872 9.6418838,4.2201737 14.2258,3.0316841 13.768032,3.7620694 14.200383,2.283947"
       style="fill:none;stroke:#ffffff;stroke-width:0.2;stroke-linecap:square;stroke-linejoin:miter;stroke-miterlimit:4;stroke-dasharray:none;stroke-opacity:0.62621304;paint-order:markers fill stroke" />
    <path
       sodipodi:nodetypes="ccccc"
       inkscape:connector-curvature="0"
       id="path3976-2"
       d="M 3.150009,7.7403947 C 4.0787494,4.644498 5.7797064,2.0726053 11.272091,2.0734668 16.5111,2.0653668 19.064554,4.30642 19.394172,7.7403947 20.029719,13.582332 18.742761,16.935723 11.272091,21.251462 6.3173204,18.425921 2.1317658,15.520046 3.150009,7.7403947 Z"
       style="fill:none;fill-opacity:1;stroke:#840900;stroke-width:0.40000001;stroke-linecap:round;stroke-linejoin:round;stroke-miterlimit:4;stroke-dasharray:none;stroke-opacity:1;paint-order:normal" />
    <g
       aria-label="HΨ=EΨ"
       style="font-style:normal;font-weight:normal;font-size:43.00191879px;line-height:1.25;font-family:sans-serif;letter-spacing:0px;word-spacing:0px;fill:#1d1d1d;fill-opacity:0.60869565;stroke:none;stroke-width:2.15009594"
       id="text5034">
      <path
         d="m 7.8857011,13.011001 0.1971775,-0.196084 1.40089,1.408701 -0.1971775,0.196085 -0.6468756,-0.650483 -0.6891049,0.685284 0.6468756,0.650482 -0.1971775,0.196085 -1.40089,-1.408702 0.1971775,-0.196084 0.5842095,0.587467 0.689105,-0.685284 z"
         style="font-style:normal;font-variant:normal;font-weight:normal;font-stretch:normal;font-size:2.86679459px;font-family:Ubuntu;-inkscape-font-specification:'Ubuntu, Normal';font-variant-ligatures:normal;font-variant-caps:normal;font-variant-numeric:normal;font-feature-settings:normal;text-align:start;writing-mode:lr-tb;text-anchor:start;fill:#1d1d1d;fill-opacity:0.60869565;stroke-width:2.15009594"
         id="path925" />
      <path
         d="M 10.860155,13.484644 10.615713,13.60473 10.391976,13.149297 Q 10.183557,13.251685 10.01292,13.268438 9.8410193,13.282618 9.7016188,13.23292 9.5635274,13.179385 9.4566274,13.065811 9.3523005,12.950972 9.2764572,12.796588 L 8.9806683,12.19449 9.2225366,12.075669 9.5018928,12.644317 q 0.1428383,0.290757 0.3411496,0.349842 0.1996206,0.05525 0.4414886,-0.06357 l -0.5448079,-1.108992 0.2444414,-0.120085 0.5448075,1.108992 q 0.241869,-0.118821 0.317567,-0.309324 0.07701,-0.194339 -0.06583,-0.485095 l -0.279356,-0.568648 0.241868,-0.118821 0.295789,0.602097 q 0.07584,0.154384 0.100405,0.308409 0.02714,0.15276 -0.01746,0.296043 -0.04329,0.139445 -0.15957,0.26684 -0.117546,0.124821 -0.325965,0.22721 z"
         style="font-style:normal;font-variant:normal;font-weight:normal;font-stretch:normal;font-size:2.86679459px;font-family:Ubuntu;-inkscape-font-specification:'Ubuntu, Normal';font-variant-ligatures:normal;font-variant-caps:normal;font-variant-numeric:normal;font-feature-settings:normal;text-align:start;writing-mode:lr-tb;text-anchor:start;fill:#1d1d1d;fill-opacity:0.60869565;stroke-width:2.15009594"
         id="path927" />
      <path
         d="m 11.769381,12.409096 1.258653,-0.37382 0.06448,0.217104 -1.258653,0.37382 z m -0.173851,-0.585355 1.258653,-0.373821 0.06448,0.217104 -1.258653,0.37382 z"
         style="font-style:normal;font-variant:normal;font-weight:normal;font-stretch:normal;font-size:2.86679459px;font-family:Ubuntu;-inkscape-font-specification:'Ubuntu, Normal';font-variant-ligatures:normal;font-variant-caps:normal;font-variant-numeric:normal;font-feature-settings:normal;text-align:start;writing-mode:lr-tb;text-anchor:start;fill:#1d1d1d;fill-opacity:0.60869565;stroke-width:2.15009594"
         id="path929" />
      <path
         d="m 13.602256,12.551867 -0.836552,-1.801975 1.099907,-0.510622 0.100193,0.215821 -0.847682,0.393529 0.248672,0.535652 0.754073,-0.350072 0.09778,0.21062 -0.754073,0.350073 0.289715,0.62406 0.912688,-0.423708 0.100193,0.215821 z"
         style="font-style:normal;font-variant:normal;font-weight:normal;font-stretch:normal;font-size:2.86679459px;font-family:Ubuntu;-inkscape-font-specification:'Ubuntu, Normal';font-variant-ligatures:normal;font-variant-caps:normal;font-variant-numeric:normal;font-feature-settings:normal;text-align:start;writing-mode:lr-tb;text-anchor:start;fill:#1d1d1d;fill-opacity:0.60869565;stroke-width:2.15009594"
         id="path931" />
      <path
         d="m 16.027676,11.403997 -0.258866,0.08462 -0.157659,-0.482308 q -0.220717,0.07215 -0.392017,0.06481 -0.172191,-0.01007 -0.303245,-0.07882 -0.129219,-0.07237 -0.219135,-0.199814 -0.08719,-0.128334 -0.140635,-0.291829 l -0.208431,-0.637628 0.256141,-0.083728 0.196851,0.6022044 q 0.100653,0.307914 0.288718,0.394226 0.1899,0.0827 0.446041,-0.001 l -0.383903,-1.1744347 0.258866,-0.084619 0.383903,1.1744349 q 0.256142,-0.08373 0.357807,-0.261733 0.103499,-0.181619 0.0028,-0.4895339 l -0.196851,-0.6022043 0.256141,-0.083728 0.20843,0.6376281 q 0.05344,0.1634945 0.05616,0.3194415 0.0054,0.155056 -0.0588,0.290668 -0.06242,0.131997 -0.195414,0.241826 -0.133889,0.107104 -0.354607,0.179253 z"
         style="font-style:normal;font-variant:normal;font-weight:normal;font-stretch:normal;font-size:2.86679459px;font-family:Ubuntu;-inkscape-font-specification:'Ubuntu, Normal';font-variant-ligatures:normal;font-variant-caps:normal;font-variant-numeric:normal;font-feature-settings:normal;text-align:start;writing-mode:lr-tb;text-anchor:start;fill:#1d1d1d;fill-opacity:0.60869565;stroke-width:2.15009594"
         id="path933" />
    </g>
    <text
       xml:space="preserve"
       style="font-style:normal;font-weight:normal;font-size:32.90110397px;line-height:1.25;font-family:sans-serif;letter-spacing:0px;word-spacing:0px;fill:#000000;fill-opacity:1;stroke:none;stroke-width:1.64505517"
       x="28.199732"
       y="19.314955"
       id="text5040"
       transform="scale(0.9884336,1.0117018)"><tspan
         sodipodi:role="line"
         id="tspan5038"
         x="28.199732"
         y="48.424721"
         style="stroke-width:1.64505517" /></text>
    <path
       sodipodi:nodetypes="ccc"
       inkscape:connector-curvature="0"
       id="path4793-0"
       d="m 8.3024742,15.541818 c 0.934722,-1.474236 2.9485588,-2.403929 4.8927588,-2.831794 2.559541,-1.038849 2.042867,-1.27541 3.866192,-1.479397"
       style="fill:none;stroke:none;stroke-width:0.05748034;stroke-linecap:square;stroke-linejoin:miter;stroke-miterlimit:4;stroke-dasharray:none;stroke-opacity:0.62621304;paint-order:markers fill stroke" />
    <text
       xml:space="preserve"
       style="font-style:normal;font-weight:normal;font-size:32.90110397px;line-height:1.25;font-family:sans-serif;letter-spacing:0px;word-spacing:0px;fill:#000000;fill-opacity:1;stroke:none;stroke-width:1.64505517"
       x="2.7980733"
       y="6.817338"
       id="text5065"
       transform="scale(0.9884336,1.0117018)"><tspan
         sodipodi:role="line"
         id="tspan5063"
         x="2.7980733"
         y="35.927105"
         style="stroke-width:1.64505517" /></text>
  </g>
</svg>
