<svg class="feather feather-thermometer" width="24" height="24" stroke-linecap="round" stroke-linejoin="round" stroke-width="2" version="1.1" viewBox="0 0 24 24" xmlns="http://www.w3.org/2000/svg">
 <text x="-0.37058929" y="6.2734785" fill="#000000" font-family="OpenSymbol" font-size="21.333px" letter-spacing="0px" word-spacing="0px" style="line-height:1.25" xml:space="preserve"><tspan x="-0.37058929" y="25.209391"/></text>
 <text x="3.4588335" y="13.129381" fill="#000000" font-family="OpenSymbol" font-size="14.667px" letter-spacing="0px" word-spacing="0px" style="line-height:1.25" xml:space="preserve"><tspan x="3.4588335" y="26.14782"/></text>
 <g>
  <g aria-label="a">
   <path d="m5.9491 10.522q0.56561 0 0.9941-0.01714 0.44563-0.03428 0.73701-0.10284v-2.6567q-0.1714-0.085698-0.56561-0.13712-0.37707-0.068559-0.92554-0.068559-0.35993 0-0.77129 0.051419-0.39421 0.051419-0.73701 0.22282-0.32565 0.15426-0.54847 0.44563-0.22282 0.27424-0.22282 0.73701 0 0.85698 0.54847 1.1998 0.54847 0.32565 1.4912 0.32565zm-0.13712-7.9871q0.95982 0 1.6111 0.2571 0.66845 0.23996 1.0627 0.70273 0.41135 0.44563 0.58275 1.0798 0.1714 0.61703 0.1714 1.3712v5.5704q-0.20568 0.03428-0.58275 0.10284-0.35993 0.05142-0.8227 0.10284-0.46277 0.05142-1.0112 0.0857-0.53133 0.05142-1.0627 0.05142-0.75415 0-1.3883-0.15426-0.63417-0.15426-1.0969-0.47991-0.46277-0.34279-0.71987-0.89126-0.2571-0.54847-0.2571-1.3198 0-0.73701 0.29137-1.2683 0.30851-0.53133 0.8227-0.85698 0.51419-0.32565 1.1998-0.47991t1.4397-0.15426q0.23996 0 0.49705 0.034279 0.2571 0.01714 0.47991 0.068559 0.23996 0.034279 0.41135 0.068559 0.1714 0.034279 0.23996 0.051419v-0.44563q0-0.39421-0.085698-0.77129-0.085699-0.39421-0.30851-0.68559-0.22282-0.30851-0.61703-0.47991-0.37707-0.18854-0.9941-0.18854-0.78843 0-1.3883 0.11998-0.58275 0.10284-0.87412 0.22282l-0.18854-1.3198q0.30851-0.13712 1.0284-0.2571 0.71987-0.13712 1.5597-0.13712z" stroke-width="2.3372"/>
  </g>
  <g aria-label="b">
   <path d="m16.273 5.6035q0.29138-0.18854 0.87412-0.39421 0.59989-0.20568 1.3712-0.20568 0.95982 0 1.6968 0.34279 0.75415 0.34279 1.2683 0.95982t0.77129 1.474q0.27424 0.85698 0.27424 1.8854 0 1.0798-0.32565 1.9539-0.30852 0.85698-0.89126 1.4569t-1.4055 0.92554-1.8511 0.32565q-1.1141 0-1.9711-0.15426-0.85698-0.15426-1.4055-0.30851v-12.769l1.594-0.27423zm0 7.1301q0.23996 0.06856 0.66845 0.13712 0.44563 0.05142 1.0969 0.05142 1.2855 0 2.0568-0.83984 0.77128-0.85698 0.77128-2.4167 0-0.68559-0.13712-1.2855-0.13712-0.59989-0.44563-1.0284-0.30851-0.44563-0.80556-0.68559-0.47991-0.2571-1.1655-0.2571-0.65131 0-1.1998 0.22282-0.54847 0.22282-0.83984 0.46277z" stroke-width="2.3372"/>
  </g>
  <g aria-label="c">
   <path d="m11.356 23.064q-1.0798 0-1.9025-0.34279-0.80556-0.34279-1.3712-0.95982-0.54847-0.61703-0.8227-1.4569-0.27424-0.85698-0.27424-1.8854t0.29137-1.8854q0.30851-0.85698 0.85698-1.474 0.54847-0.63417 1.3369-0.97696 0.80556-0.35993 1.7825-0.35993 0.59989 0 1.1998 0.10284t1.1484 0.32565l-0.35993 1.354q-0.35993-0.1714-0.83984-0.27424-0.46277-0.10284-0.9941-0.10284-1.3369 0-2.0568 0.83984-0.70273 0.83984-0.70273 2.451 0 0.71987 0.15426 1.3198 0.1714 0.59989 0.51419 1.0284 0.35993 0.42849 0.9084 0.66845 0.54847 0.22282 1.3369 0.22282 0.63417 0 1.1484-0.11998 0.51419-0.11998 0.80556-0.2571l0.22282 1.3369q-0.13712 0.0857-0.39421 0.1714-0.2571 0.06856-0.58275 0.11998-0.32565 0.06856-0.70273 0.10284-0.35993 0.05142-0.70273 0.05142z" stroke-width="2.3372"/>
  </g>
 </g>
</svg>
