<?xml version="1.0" encoding="UTF-8" standalone="no"?>
<svg
   xmlns:dc="http://purl.org/dc/elements/1.1/"
   xmlns:cc="http://creativecommons.org/ns#"
   xmlns:rdf="http://www.w3.org/1999/02/22-rdf-syntax-ns#"
   xmlns:svg="http://www.w3.org/2000/svg"
   xmlns="http://www.w3.org/2000/svg"
   xmlns:sodipodi="http://sodipodi.sourceforge.net/DTD/sodipodi-0.dtd"
   xmlns:inkscape="http://www.inkscape.org/namespaces/inkscape"
   width="24"
   height="24"
   viewBox="0 0 24 24"
   fill="none"
   stroke="currentColor"
   stroke-width="2"
   stroke-linecap="round"
   stroke-linejoin="round"
   class="feather feather-thermometer"
   version="1.1"
   id="svg2633"
   sodipodi:docname="angles.svg"
   inkscape:version="0.92.3 (2405546, 2018-03-11)">
  <metadata
     id="metadata2639">
    <rdf:RDF>
      <cc:Work
         rdf:about="">
        <dc:format>image/svg+xml</dc:format>
        <dc:type
           rdf:resource="http://purl.org/dc/dcmitype/StillImage" />
        <dc:title></dc:title>
      </cc:Work>
    </rdf:RDF>
  </metadata>
  <defs
     id="defs2637" />
  <sodipodi:namedview
     pagecolor="#ffffff"
     bordercolor="#666666"
     borderopacity="1"
     objecttolerance="10"
     gridtolerance="10"
     guidetolerance="10"
     inkscape:pageopacity="0"
     inkscape:pageshadow="2"
     inkscape:window-width="1920"
     inkscape:window-height="1016"
     id="namedview2635"
     showgrid="false"
     inkscape:zoom="16.19043"
     inkscape:cx="0.12293183"
     inkscape:cy="12.408308"
     inkscape:window-x="0"
     inkscape:window-y="27"
     inkscape:window-maximized="1"
     inkscape:current-layer="svg2633" />
  <g
     aria-label="β"
     style="font-style:normal;font-variant:normal;font-weight:normal;font-stretch:normal;font-size:16.54187202px;line-height:1.25;font-family:OpenSymbol;-inkscape-font-specification:OpenSymbol;letter-spacing:0px;word-spacing:0px;fill:#000000;fill-opacity:1;stroke:none;stroke-width:2.25571012"
     id="text4600">
    <path
       d="m 17.699955,11.032493 q 0.121156,0.452317 0.549241,0.759246 0.436163,0.298852 1.001559,0.298852 0.872325,0 1.373105,-0.767323 0.500779,-0.7754 0.500779,-2.0838882 0,-1.316565 -0.484625,-2.1404278 -0.476548,-0.8319398 -1.421567,-1.1388691 0,0 -0.01615,0 h -0.0081 q -0.04846,0.016154 -0.169619,0.064617 -0.597705,0.2665439 -0.912711,0.2665439 -0.218081,0 -0.33116,-0.1211563 -0.11308,-0.1292334 -0.11308,-0.371546 0,-0.2342355 0.11308,-0.3311605 0.121156,-0.1050021 0.379623,-0.1050021 0.210004,0 0.864248,0.2423125 l 0.242312,0.088848 h 0.01616 q 0.549241,-0.2342355 0.815785,-0.7430919 0.266544,-0.5169335 0.266544,-1.316565 0,-1.0500212 -0.468471,-1.6638797 -0.460394,-0.6138586 -1.243871,-0.6138586 -0.936942,0 -1.348874,0.7350149 -0.411931,0.7269377 -0.411931,2.4312028 V 15.644509 H 15.519141 V 6.065085 q 0,-2.447357 0.880403,-3.7719991 0.888479,-1.33271917 2.503896,-1.33271917 1.300411,0 2.100043,0.67847517 0.807708,0.6703982 0.807708,1.776959 0,0.7754002 -0.565396,1.3811817 -0.557319,0.6057814 -1.631571,0.9611732 l -0.129233,0.048463 0.13731,0.032308 q 1.494261,0.371546 2.253507,1.1711775 0.759246,0.7915544 0.759246,1.9788861 0,1.5104148 -0.904633,2.4796658 -0.904634,0.96925 -2.261585,0.96925 -0.880402,0 -1.453875,-0.3877 -0.573473,-0.395777 -0.670398,-1.017713 z"
       style="stroke-width:2.25571012"
       id="path4632" />
  </g>
  <text
     xml:space="preserve"
     style="font-style:normal;font-variant:normal;font-weight:normal;font-stretch:normal;font-size:21.33333397px;line-height:1.25;font-family:OpenSymbol;-inkscape-font-specification:OpenSymbol;letter-spacing:0px;word-spacing:0px;fill:#000000;fill-opacity:1;stroke:none"
     x="-0.37058929"
     y="6.2734785"
     id="text4574"><tspan
       sodipodi:role="line"
       id="tspan4572"
       x="-0.37058929"
       y="25.209391" /></text>
  <text
     xml:space="preserve"
     style="font-style:normal;font-variant:normal;font-weight:normal;font-stretch:normal;font-size:14.66666698px;line-height:1.25;font-family:OpenSymbol;-inkscape-font-specification:OpenSymbol;letter-spacing:0px;word-spacing:0px;fill:#000000;fill-opacity:1;stroke:none"
     x="3.4588335"
     y="13.129381"
     id="text4582"><tspan
       sodipodi:role="line"
       id="tspan4580"
       x="3.4588335"
       y="26.14782" /></text>
  <g
     aria-label="α"
     style="font-style:normal;font-variant:normal;font-weight:normal;font-stretch:normal;font-size:16.54187202px;line-height:1.25;font-family:OpenSymbol;-inkscape-font-specification:OpenSymbol;letter-spacing:0px;word-spacing:0px;fill:#000000;fill-opacity:1;stroke:none;stroke-width:2.25571012"
     id="text4594">
    <path
       d="m 5.2921216,8.3823584 q 0.9692503,0 1.5184921,-0.7915544 Q 7.3598556,6.7992496 7.779864,4.6992072 v -0.00808 -0.00808 Q 7.4163952,2.9707108 6.8267679,2.2114647 6.2452177,1.4522187 5.3082757,1.4522187 q -1.0177128,0 -1.6073401,0.9288648 -0.5815502,0.9207878 -0.5815502,2.4877425 0,1.6961881 0.5492419,2.6088988 0.5573189,0.9046336 1.6234943,0.9046336 z M 10.041448,1.2502915 9.4195125,3.6734173 Q 9.2498937,4.3195842 9.0318124,4.9334427 8.813731,5.5392241 8.5552643,6.0965431 v 0.016154 0.016154 q 0.282698,0.7269378 0.6057814,1.0984837 0.3230835,0.3634689 0.6946294,0.3634689 0.2826979,0 0.4684709,-0.2100043 0.19385,-0.2180813 0.242313,-0.5492418 h 0.242312 v 0.1373105 q 0,0.9127107 -0.250389,1.3488733 -0.25039,0.4280856 -0.7511694,0.4280856 -0.5330877,0 -0.848094,-0.4200085 Q 8.6441122,7.8977332 8.3452601,6.6780933 l -0.024231,-0.096925 -0.048463,0.080771 q -0.654244,1.0984837 -1.405413,1.5911859 -0.751169,0.4927023 -1.7769589,0.4927023 -1.5588776,0 -2.5927446,-1.1065608 -1.033867,-1.1065608 -1.033867,-2.8027488 0,-1.5265693 1.0580983,-2.6654384 1.0661753,-1.1469462 2.5200508,-1.1469462 1.1388691,0 1.8577298,0.6703981 0.7188606,0.6703982 1.0177128,2.0111944 l 0.040385,0.1696188 0.6219356,-2.6250529 z"
       style="stroke-width:2.25571012"
       id="path4629" />
  </g>
  <g
     aria-label="γ"
     style="font-style:normal;font-variant:normal;font-weight:normal;font-stretch:normal;font-size:16.54187202px;line-height:1.25;font-family:OpenSymbol;-inkscape-font-specification:OpenSymbol;letter-spacing:0px;word-spacing:0px;fill:#000000;fill-opacity:1;stroke:none;stroke-width:2.25571012"
     id="text4606">
    <path
       d="M 9.7333059,19.163762 Q 9.2890662,17.580653 8.7317472,16.199471 7.8594219,14.059043 7.1890238,13.622881 6.5186257,13.186718 5.3878336,13.210949 l 0.8884795,-0.977327 q 2.0031173,0 3.198526,2.083888 0.6300129,1.106561 1.3892589,3.771999 2.342355,-3.384299 2.019271,-5.032024 -0.08885,-0.452317 -0.3877,-0.823863 h 1.688111 q 0.06462,0.201927 0.09692,0.347315 0.201927,1.050021 -1.211563,3.141986 l -1.986963,2.956214 q 0.121157,0.492702 0.218082,0.961173 0.250389,1.405413 -0.210005,2.390817 -0.58155,1.268103 -1.9869628,1.268103 -0.5492419,0 -1.0580983,-0.339238 Q 7.5282614,22.612678 7.4394135,22.095744 7.1971009,20.706485 9.7333059,19.163762 Z m 0.2100042,0.508856 q -2.0596569,1.437722 -1.9061923,2.205045 0.1373105,0.694629 0.8319399,0.694629 0.8319398,0 1.1146378,-0.888479 0.2261585,-0.735015 0.088847,-1.429645 -0.072693,-0.339237 -0.1292329,-0.58155 z"
       style="stroke-width:2.25571012"
       id="path4635" />
  </g>
</svg>
