<svg class="feather feather-thermometer" width="24" height="24" fill="none" stroke="currentColor" stroke-linecap="round" stroke-linejoin="round" stroke-width="2" version="1.1" viewBox="0 0 24 24" xmlns="http://www.w3.org/2000/svg">
 <g stroke="none">
  <g fill="#000" aria-label="β">
   <path d="m17.7 11.032q0.12116 0.45232 0.54924 0.75925 0.43616 0.29885 1.0016 0.29885 0.87232 0 1.3731-0.76732 0.50078-0.7754 0.50078-2.0839 0-1.3166-0.48462-2.1404-0.47655-0.83194-1.4216-1.1389 0 0-0.01615 0h-0.0081q-0.04846 0.016154-0.16962 0.064617-0.5977 0.26654-0.91271 0.26654-0.21808 0-0.33116-0.12116-0.11308-0.12923-0.11308-0.37155 0-0.23424 0.11308-0.33116 0.12116-0.105 0.37962-0.105 0.21 0 0.86425 0.24231l0.24231 0.088848h0.01616q0.54924-0.23424 0.81578-0.74309 0.26654-0.51693 0.26654-1.3166 0-1.05-0.46847-1.6639-0.46039-0.61386-1.2439-0.61386-0.93694 0-1.3489 0.73501-0.41193 0.72694-0.41193 2.4312v11.122h-1.3731v-9.5794q0-2.4474 0.8804-3.772 0.88848-1.3327 2.5039-1.3327 1.3004 0 2.1 0.67848 0.80771 0.6704 0.80771 1.777 0 0.7754-0.5654 1.3812-0.55732 0.60578-1.6316 0.96117l-0.12923 0.048463 0.13731 0.032308q1.4943 0.37155 2.2535 1.1712 0.75925 0.79155 0.75925 1.9789 0 1.5104-0.90463 2.4797-0.90463 0.96925-2.2616 0.96925-0.8804 0-1.4539-0.3877-0.57347-0.39578-0.6704-1.0177z" stroke-width="2.2557"/>
  </g>
  <text x="-0.37058929" y="6.2734785" fill="#000000" font-family="OpenSymbol" font-size="21.333px" letter-spacing="0px" word-spacing="0px" style="line-height:1.25" xml:space="preserve"><tspan x="-0.37058929" y="25.209391"/></text>
  <text x="3.4588335" y="13.129381" fill="#000000" font-family="OpenSymbol" font-size="14.667px" letter-spacing="0px" word-spacing="0px" style="line-height:1.25" xml:space="preserve"><tspan x="3.4588335" y="26.14782"/></text>
  <g fill="#000" aria-label="α">
   <path d="m5.2921 8.3824q0.96925 0 1.5185-0.79155 0.54924-0.79155 0.96925-2.8916v-0.01616q-0.36347-1.7123-0.9531-2.4716-0.58155-0.75925-1.5185-0.75925-1.0177 0-1.6073 0.92886-0.58155 0.92079-0.58155 2.4877 0 1.6962 0.54924 2.6089 0.55732 0.90463 1.6235 0.90463zm4.7493-7.1321-0.62194 2.4231q-0.16962 0.64617-0.3877 1.26-0.21808 0.60578-0.47655 1.1631v0.032308q0.2827 0.72694 0.60578 1.0985 0.32308 0.36347 0.69463 0.36347 0.2827 0 0.46847-0.21 0.19385-0.21808 0.24231-0.54924h0.24231v0.13731q0 0.91271-0.25039 1.3489-0.25039 0.42809-0.75117 0.42809-0.53309 0-0.84809-0.42001-0.31501-0.42809-0.61386-1.6477l-0.024231-0.096925-0.048463 0.080771q-0.65424 1.0985-1.4054 1.5912-0.75117 0.4927-1.777 0.4927-1.5589 0-2.5927-1.1066t-1.0339-2.8027q0-1.5266 1.0581-2.6654 1.0662-1.1469 2.5201-1.1469 1.1389 0 1.8577 0.6704 0.71886 0.6704 1.0177 2.0112l0.040385 0.16962 0.62194-2.6251z" stroke-width="2.2557"/>
  </g>
  <g fill="#000" aria-label="γ">
   <path d="m9.7333 19.164q-0.44424-1.5831-1.0016-2.9643-0.87233-2.1404-1.5427-2.5766-0.6704-0.43616-1.8012-0.41193l0.88848-0.97733q2.0031 0 3.1985 2.0839 0.63001 1.1066 1.3893 3.772 2.3424-3.3843 2.0193-5.032-0.08885-0.45232-0.3877-0.82386h1.6881q0.06462 0.20193 0.09692 0.34732 0.20193 1.05-1.2116 3.142l-1.987 2.9562q0.12116 0.4927 0.21808 0.96117 0.25039 1.4054-0.21 2.3908-0.58155 1.2681-1.987 1.2681-0.54924 0-1.0581-0.33924-0.51693-0.34731-0.60578-0.86425-0.24231-1.3893 2.2939-2.932zm0.21 0.50886q-2.0597 1.4377-1.9062 2.205 0.13731 0.69463 0.83194 0.69463 0.83194 0 1.1146-0.88848 0.22616-0.73502 0.088847-1.4296-0.072693-0.33924-0.12923-0.58155z" stroke-width="2.2557"/>
  </g>
 </g>
</svg>
