<?xml version="1.0" encoding="UTF-8" standalone="no"?>
<svg
   xmlns:dc="http://purl.org/dc/elements/1.1/"
   xmlns:cc="http://creativecommons.org/ns#"
   xmlns:rdf="http://www.w3.org/1999/02/22-rdf-syntax-ns#"
   xmlns:svg="http://www.w3.org/2000/svg"
   xmlns="http://www.w3.org/2000/svg"
   xmlns:sodipodi="http://sodipodi.sourceforge.net/DTD/sodipodi-0.dtd"
   xmlns:inkscape="http://www.inkscape.org/namespaces/inkscape"
   width="24"
   height="24"
   viewBox="0 0 24 24"
   fill="none"
   stroke="currentColor"
   stroke-width="2"
   stroke-linecap="round"
   stroke-linejoin="round"
   class="feather feather-check-circle"
   version="1.1"
   id="svg912"
   sodipodi:docname="angles.svg"
   inkscape:version="0.92.3 (2405546, 2018-03-11)">
  <metadata
     id="metadata918">
    <rdf:RDF>
      <cc:Work
         rdf:about="">
        <dc:format>image/svg+xml</dc:format>
        <dc:type
           rdf:resource="http://purl.org/dc/dcmitype/StillImage" />
        <dc:title />
      </cc:Work>
    </rdf:RDF>
  </metadata>
  <defs
     id="defs916">
    <clipPath
       clipPathUnits="userSpaceOnUse"
       id="clipPath4862">
      <g
         id="use4864"
         inkscape:label="Clip">
        <text
           xml:space="preserve"
           style="font-style:normal;font-variant:normal;font-weight:normal;font-stretch:normal;font-size:21.62864113px;line-height:1.25;font-family:OpenSymbol;-inkscape-font-specification:OpenSymbol;letter-spacing:0px;word-spacing:0px;fill:#000000;fill-opacity:1;stroke:none;stroke-width:1.0814321"
           x="0.36598843"
           y="15.595892"
           id="text5821"><tspan
             sodipodi:role="line"
             id="tspan5819"
             x="0.36598843"
             y="15.595892"
             style="stroke-width:1.0814321">θ</tspan></text>
        <text
           xml:space="preserve"
           style="font-style:normal;font-variant:normal;font-weight:normal;font-stretch:normal;font-size:18.26297569px;line-height:1.25;font-family:OpenSymbol;-inkscape-font-specification:OpenSymbol;letter-spacing:0px;word-spacing:0px;fill:#000000;fill-opacity:1;stroke:none;stroke-width:0.91314882"
           x="12.974728"
           y="-29.996325"
           id="text5827"><tspan
             sodipodi:role="line"
             id="tspan5823"
             x="12.974728"
             y="-13.785727"
             style="stroke-width:0.91314882" /><tspan
             sodipodi:role="line"
             id="tspan5825"
             x="12.974728"
             y="9.0429926"
             style="stroke-width:0.91314882">φ</tspan></text>
        <text
           xml:space="preserve"
           style="font-style:normal;font-variant:normal;font-weight:normal;font-stretch:normal;font-size:18.699646px;line-height:1.25;font-family:OpenSymbol;-inkscape-font-specification:OpenSymbol;letter-spacing:0px;word-spacing:0px;fill:#000000;fill-opacity:1;stroke:none;stroke-width:0.9349823"
           x="6.1380992"
           y="19.032444"
           id="text5831"><tspan
             sodipodi:role="line"
             id="tspan5829"
             x="6.1380992"
             y="19.032444"
             style="stroke-width:0.9349823">ψ</tspan></text>
      </g>
    </clipPath>
  </defs>
  <sodipodi:namedview
     pagecolor="#ffffff"
     bordercolor="#666666"
     borderopacity="1"
     objecttolerance="10"
     gridtolerance="10"
     guidetolerance="10"
     inkscape:pageopacity="0"
     inkscape:pageshadow="2"
     inkscape:window-width="1920"
     inkscape:window-height="1043"
     id="namedview914"
     showgrid="false"
     inkscape:zoom="36.15441"
     inkscape:cx="6.5658082"
     inkscape:cy="11.203368"
     inkscape:window-x="1920"
     inkscape:window-y="0"
     inkscape:window-maximized="1"
     inkscape:current-layer="g4860" />
  <g
     id="g4860"
     clip-path="url(#clipPath4862)"
     transform="translate(-0.4321334,0.23244178)">
    <g
       aria-label="θ"
       style="font-style:normal;font-variant:normal;font-weight:normal;font-stretch:normal;font-size:21.62864113px;line-height:1.25;font-family:OpenSymbol;-inkscape-font-specification:OpenSymbol;letter-spacing:0px;word-spacing:0px;fill:#000000;fill-opacity:1;stroke:none;stroke-width:1.0814321"
       id="text4831">
      <path
         d="M 8.5717766,8.277216 H 3.3652727 v 0.5491647 q 0,3.6118143 0.5914081,5.0797733 0.601969,1.457399 2.0276851,1.457399 1.4573987,0 2.0171243,-1.425716 Q 8.5717766,12.50156 8.5717766,8.3300203 Z M 3.3652727,7.6224427 h 5.2065039 v -0.052804 q 0,-0.147852 0.010561,-0.4013127 0.010561,-0.2640215 0.010561,-0.3801909 0,-2.7247019 -0.6125299,-4.0025659 -0.6125298,-1.2778641 -1.9431982,-1.2778641 -1.3834726,0 -2.0171242,1.436277 Q 3.3969552,4.3802587 3.3652727,7.5696384 Z M 6.0371702,1.0958313 q 2.186098,0 3.3689143,1.8270287 1.1828165,1.8164679 1.1828165,5.2593083 0,3.7068617 -1.1722556,5.6711817 -1.1722555,1.953759 -3.3583535,1.953759 -2.3128283,0 -3.0732102,-1.214499 Q 2.2246998,13.378111 1.9712391,12.62829 1.7283394,11.867908 1.6121699,11.14977 1.5065613,10.421071 1.4643179,9.9141493 1.4220744,9.3966672 1.4220744,9.0059154 q 0,-0.021122 -0.010561,-0.1056086 0,-0.084487 0,-0.232339 0,-0.147852 0,-0.3168258 0,-3.4428403 1.2250597,-5.3437951 1.2250598,-1.9115156 3.4005969,-1.9115156 z"
         style="stroke-width:1.0814321"
         id="path5234" />
    </g>
    <g
       aria-label="
φ"
       style="font-style:normal;font-variant:normal;font-weight:normal;font-stretch:normal;font-size:18.26297569px;line-height:1.25;font-family:OpenSymbol;-inkscape-font-specification:OpenSymbol;letter-spacing:0px;word-spacing:0px;fill:#000000;fill-opacity:1;stroke:none;stroke-width:0.91314882"
       id="text4837">
      <path
         d="m 19.3418,5.1014717 v 3.6383272 h 0.04459 q 1.542722,0 2.523643,-1.2395281 0.989839,-1.2395281 0.989839,-3.2013712 0,-1.3554553 -0.52613,-2.1758624 -0.517214,-0.8293246 -1.364373,-0.8293246 -0.927417,0 -1.301951,0.8293246 Q 19.3418,2.9523618 19.3418,5.1014717 Z M 18.03985,8.7308815 V 7.6518678 q 0,-2.14911 0.08026,-3.0497743 0.08918,-0.9095818 0.285359,-1.5427221 0.347781,-1.123601 0.989839,-1.7210714 0.642058,-0.5974704 1.524887,-0.5974704 1.070096,0 1.801329,0.989839 0.731232,0.9809216 0.731232,2.5414786 0,2.1580274 -1.123601,3.5134826 -1.114683,1.3465377 -2.942764,1.4178775 H 19.3418 V 12.71699 H 18.03985 V 9.2035073 h -0.04459 q -2.11344,-0.151597 -3.272711,-1.3287028 -1.15927,-1.1771059 -1.15927,-3.1746188 0,-1.8548335 0.749067,-2.9070948 0.757985,-1.0522613 2.0421,-1.0522613 0.624223,0 1.105766,0.3121114 0.481544,0.3121114 0.838242,0.9452517 L 17.941758,2.2211294 Q 17.683151,1.775256 17.344287,1.5523192 17.014341,1.3293825 16.568467,1.3293825 q -0.784737,0 -1.114683,0.7579849 -0.329946,0.7490673 -0.329946,2.550396 0,1.7834937 0.731232,2.835755 0.731232,1.0433438 2.131275,1.2484456 z"
         style="stroke-width:0.91314882"
         id="path5240" />
    </g>
    <g
       aria-label="ψ"
       style="font-style:normal;font-variant:normal;font-weight:normal;font-stretch:normal;font-size:18.699646px;line-height:1.25;font-family:OpenSymbol;-inkscape-font-specification:OpenSymbol;letter-spacing:0px;word-spacing:0px;fill:#000000;fill-opacity:1;stroke:none;stroke-width:0.9349823"
       id="text4847">
      <path
         d="m 13.817007,18.722001 q 1.424387,-0.25566 2.182234,-1.18699 0.766977,-0.93133 0.766977,-2.410501 0,-1.132205 -0.447403,-2.328325 -0.447404,-1.19612 -0.447404,-1.47004 0,-0.429143 0.210006,-0.648279 0.210006,-0.219137 0.639148,-0.219137 0.611756,0 0.885676,0.65741 0.283052,0.657409 0.283052,2.154842 0,2.501808 -1.086552,4.054025 -1.077421,1.543086 -3.003996,1.826137 l -0.03652,0.0091 0.219137,3.634013 h -1.835268 l 0.173483,-3.643144 h -0.04565 Q 10.064294,19.014183 9.0507882,18.128506 8.037282,17.242829 8.037282,15.462346 q 0,-0.675671 0.1004375,-1.762223 0.1004376,-1.086552 0.1004376,-1.497433 0,-0.529579 -0.1917444,-0.8035 -0.1826138,-0.283051 -0.5661026,-0.283051 -0.5021877,0 -0.7487163,0.420011 -0.2465285,0.420012 -0.2465285,1.232643 v 0.237398 H 6.1198378 q 0,-0.05478 0,-0.12783 -0.00913,-0.07305 -0.00913,-0.237398 0,-1.06829 0.4747957,-1.625262 0.4839264,-0.556972 1.4061258,-0.556972 0.8856766,0 1.3422109,0.566103 0.465665,0.556972 0.465665,1.652654 0,0.301313 -0.082176,1.223512 -0.073046,0.9222 -0.073046,1.524825 0,1.835268 0.5752332,2.492677 0.575233,0.648279 2.090927,0.785239 h 0.04565 L 12.840023,8.3221487 h 0.39262 l 0.529579,10.4089823 z"
         style="stroke-width:0.9349823"
         id="path5237" />
    </g>
  </g>
</svg>
