<svg class="feather feather-check-circle" width="24" height="24" stroke-linecap="round" stroke-linejoin="round" stroke-width="2" version="1.1" viewBox="0 0 24 24" xmlns="http://www.w3.org/2000/svg">
 <g transform="translate(.14315 -.21525)" fill="none" stroke="#000" stroke-linecap="round" stroke-linejoin="miter">
  <g transform="matrix(1.2318 0 0 1.2318 -2.8028 -.66097)" stroke-width="1px">
   <path d="m7.8628 1.5169v11.336h-0.031577 11.936"/>
   <path d="m4.1682 19.39z"/>
   <path d="m4.1682 19.39 3.6946-6.5365"/>
  </g>
  <path d="m6.8163 1.1493-2.693 4.3208" stroke-width="1.0553px"/>
  <path d="m6.9301 1.131 2.693 4.3208" stroke-width="1.0553px"/>
  <g transform="matrix(0 1.0553 -1.0553 0 38.716 -6.4221)" stroke-width="1px">
   <path d="m20.408 16.214-2.5519 4.0945"/>
   <path d="m20.516 16.197 2.5519 4.0945"/>
  </g>
  <path d="m2.3488 23.315 4.4926-2.3954" stroke-width="1.0553px"/>
  <path d="m2.2411 23.273-0.17177-5.0884" stroke-width="1.0553px"/>
 </g>
 <g>
  <g aria-label="x">
   <path d="m8.3214 20.59h-0.512l0.928 1.296-0.90133 1.2747h0.48533l0.66133-0.944 0.66667 0.944h0.528l-0.91733-1.2853 0.93333-1.2853h-0.496l-0.688 0.96z" style=""/>
  </g>
  <g aria-label="y">
   <path d="m23.069 9.9959-0.78933 2.1333-0.78933-2.1333h-0.464l1.0347 2.704-0.49067 1.1893h0.448l1.472-3.8933z" style=""/>
  </g>
  <g aria-label="z">
   <path d="m9.7043 0.49592v0.352h1.4027l-1.4027 1.9947v0.224h2.0267v-0.352h-1.472l1.408-1.9947v-0.224z" style=""/>
  </g>
 </g>
</svg>
