<svg class="feather feather-check-circle" width="24" height="24" stroke-linecap="round" stroke-linejoin="round" stroke-width="2" version="1.1" viewBox="0 0 24 24" xmlns="http://www.w3.org/2000/svg">
 <g transform="translate(.14315 -.21525)" fill="none" stroke="#000" stroke-linecap="round" stroke-linejoin="miter">
  <g transform="matrix(1.2318 0 0 1.2318 -2.8028 -.66097)" stroke-width="1px">
   <path d="m7.8628 1.5169v11.336h-.031577 11.936"/>
   <path d="m4.1682 19.39z"/>
   <path d="m4.1682 19.39 3.6946-6.5365"/>
  </g>
  <path d="m6.8163 1.1493-2.693 4.3208" stroke-width="1.0553px"/>
  <path d="m6.9301 1.131 2.693 4.3208" stroke-width="1.0553px"/>
  <g transform="matrix(0 1.0553 -1.0553 0 38.716 -6.4221)" stroke-width="1px">
   <path d="m20.408 16.214-2.5519 4.0945"/>
   <path d="m20.516 16.197 2.5519 4.0945"/>
  </g>
  <path d="m2.3488 23.315 4.4926-2.3954" stroke-width="1.0553px"/>
  <path d="m2.2411 23.273-.17177-5.0884" stroke-width="1.0553px"/>
 </g>
 <g>
  <g style="font-feature-settings:normal;font-variant-caps:normal;font-variant-ligatures:normal;font-variant-numeric:normal" aria-label="a">
   <path d="m13.677 6.0718q.69278 0 1.0515-.074227v-1.6577q-.12371-.037113-.35876-.074227-.23505-.037113-.51959-.037113-.24742 0-.50722.037113-.24742.037113-.45773.13608-.19794.098969-.32165.28454-.12371.1732-.12371.44536 0 .53196.33402.74227.33402.19794.90309.19794zm-.12371-5.5794q.74227 0 1.2495.18557.50722.18557.80412.51959.30928.33402.43299.8165.13608.4701.13608 1.0392v3.9217q-.34639.074227-1.0515.1732-.69278.11134-1.5711.11134-.58144 0-1.0639-.11134-.48247-.11134-.82887-.35876-.33402-.24742-.53196-.6433-.18557-.39588-.18557-.97732 0-.5567.21031-.94021.22268-.38351.59382-.61856.37113-.24742.85361-.34639.49484-.11134 1.0268-.11134.24742 0 .51959.037113.27216.024742.58144.098969v-.24742q0-.25979-.06186-.49485-.061852-.23505-.22268-.40825-.14845-.18557-.40825-.28454-.24742-.098969-.63093-.098969-.51959 0-.95258.074227t-.70516.1732l-.18557-1.2124q.28454-.098969.82887-.19794.54433-.098969 1.1629-.098969z" stroke-width="1.1598"/>
  </g>
  <g style="font-feature-settings:normal;font-variant-caps:normal;font-variant-ligatures:normal;font-variant-numeric:normal" aria-label="b">
   <path d="m22.205 8.964q0-.82267-.33121-1.3035-.32052-.48078-1.0257-.48078-.32052 0-.60899.096157-.27779.096157-.44873.21368v3.2159q.13889.03205.35258.0641.22436.02137.5342.02137.71583 0 1.1218-.48078.406-.49147.406-1.3462zm1.3248.021368q0 .6731-.203 1.218-.19231.5342-.56626.91883-.36326.38463-.88678.58762-.52352.203-1.1859.203-.64104 0-1.2287-.09616-.57694-.09616-.96157-.21368v-7.9062l1.2928-.21368v2.8954q.22437-.11752.54489-.21368.33121-.096157.72652-.096157.58762 0 1.047.21368.4701.203.77994.58762.30984.38463.4701.92952.17095.5342.17095 1.1859z" stroke-width="1.0016"/>
  </g>
  <g style="font-feature-settings:normal;font-variant-caps:normal;font-variant-ligatures:normal;font-variant-numeric:normal" aria-label="c">
   <path d="m8.8393 19.798q0-.71371.2215-1.329.2215-.62758.62758-1.0829.41838-.4553 1.009-.71371t1.329-.25841q.9106 0 1.7228.33225l-.31994 1.2182q-.25841-.11075-.59066-.18458-.31994-.07383-.6891-.07383-.87368 0-1.329.55374-.4553.54144-.4553 1.5382 0 .95982.43069 1.5259.43069.55374 1.452.55374.38147 0 .75063-.07383.36916-.07383.63988-.18458l.20919 1.2305q-.24611.12305-.75063.2215-.49222.09844-1.0214.09844-.82446 0-1.4397-.24611-.60296-.25842-1.009-.70141-.39377-.4553-.59066-1.0706-.19689-.62758-.19689-1.3536z" stroke-width="1.1536"/>
  </g>
 </g>
</svg>
