<?xml version="1.0" encoding="UTF-8" standalone="no"?>
<svg
   xmlns:dc="http://purl.org/dc/elements/1.1/"
   xmlns:cc="http://creativecommons.org/ns#"
   xmlns:rdf="http://www.w3.org/1999/02/22-rdf-syntax-ns#"
   xmlns:svg="http://www.w3.org/2000/svg"
   xmlns="http://www.w3.org/2000/svg"
   xmlns:sodipodi="http://sodipodi.sourceforge.net/DTD/sodipodi-0.dtd"
   xmlns:inkscape="http://www.inkscape.org/namespaces/inkscape"
   class="feather feather-check-circle"
   width="24"
   height="24"
   stroke-linecap="round"
   stroke-linejoin="round"
   stroke-width="2"
   version="1.1"
   viewBox="0 0 24 24"
   id="svg948"
   sodipodi:docname="axis.svg"
   inkscape:version="0.92.3 (2405546, 2018-03-11)">
  <metadata
     id="metadata954">
    <rdf:RDF>
      <cc:Work
         rdf:about="">
        <dc:format>image/svg+xml</dc:format>
        <dc:type
           rdf:resource="http://purl.org/dc/dcmitype/StillImage" />
      </cc:Work>
    </rdf:RDF>
  </metadata>
  <defs
     id="defs952" />
  <sodipodi:namedview
     pagecolor="#ffffff"
     bordercolor="#666666"
     borderopacity="1"
     objecttolerance="10"
     gridtolerance="10"
     guidetolerance="10"
     inkscape:pageopacity="0"
     inkscape:pageshadow="2"
     inkscape:window-width="1920"
     inkscape:window-height="1016"
     id="namedview950"
     showgrid="false"
     inkscape:zoom="17.145833"
     inkscape:cx="9.0015895"
     inkscape:cy="17.372001"
     inkscape:window-x="0"
     inkscape:window-y="27"
     inkscape:window-maximized="1"
     inkscape:current-layer="svg948" />
  <g
     transform="translate(.14315 -.21525)"
     fill="none"
     stroke="#000"
     stroke-linecap="round"
     stroke-linejoin="miter"
     id="g932">
    <g
       transform="matrix(1.2318 0 0 1.2318 -2.8028 -.66097)"
       stroke-width="1px"
       id="g916">
      <path
         d="m7.8628 1.5169v11.336h-0.031577 11.936"
         id="path910" />
      <path
         d="m4.1682 19.39z"
         id="path912" />
      <path
         d="m4.1682 19.39 3.6946-6.5365"
         id="path914" />
    </g>
    <path
       d="m6.8163 1.1493-2.693 4.3208"
       stroke-width="1.0553px"
       id="path918" />
    <path
       d="m6.9301 1.131 2.693 4.3208"
       stroke-width="1.0553px"
       id="path920" />
    <g
       transform="matrix(0 1.0553 -1.0553 0 38.716 -6.4221)"
       stroke-width="1px"
       id="g926">
      <path
         d="m20.408 16.214-2.5519 4.0945"
         id="path922" />
      <path
         d="m20.516 16.197 2.5519 4.0945"
         id="path924" />
    </g>
    <path
       d="m2.3488 23.315 4.4926-2.3954"
       stroke-width="1.0553px"
       id="path928" />
    <path
       d="m2.2411 23.273-0.17177-5.0884"
       stroke-width="1.0553px"
       id="path930" />
  </g>
  <g
     id="g936"
     aria-label="x"
     transform="matrix(2.3210794,0,0,2.1570715,-9.4419891,-26.973554)">
    <path
       inkscape:connector-curvature="0"
       id="path934"
       d="m 8.3214,20.59 h -0.512 l 0.928,1.296 -0.90133,1.2747 H 8.3214 l 0.66133,-0.944 0.66667,0.944 h 0.528 L 9.26007,21.8754 10.1934,20.5901 h -0.496 l -0.688,0.96 z" />
  </g>
  <g
     id="g940"
     aria-label="y"
     transform="matrix(2.4201907,0,0,1.7340398,-32.894219,-11.594983)">
    <path
       inkscape:connector-curvature="0"
       id="path938"
       d="m 23.069,9.9959 -0.78933,2.1333 -0.78933,-2.1333 h -0.464 l 1.0347,2.704 -0.49067,1.1893 h 0.448 l 1.472,-3.8933 z" />
  </g>
  <g
     id="g944"
     aria-label="z"
     transform="matrix(2.2662067,0,0,2.0663207,-10.6546,-0.587133)">
    <path
       inkscape:connector-curvature="0"
       id="path942"
       d="m 9.7043,0.49592 v 0.352 h 1.4027 l -1.4027,1.9947 v 0.224 h 2.0267 v -0.352 h -1.472 l 1.408,-1.9947 v -0.224 z" />
  </g>
</svg>
