<svg class="feather feather-check-circle" width="24" height="24" stroke-linecap="round" stroke-linejoin="round" stroke-width="2" version="1.1" viewBox="0 0 24 24" xmlns="http://www.w3.org/2000/svg">
 <g fill-opacity="0" fill-rule="evenodd" stroke-linecap="round">
  <g stroke-linejoin="miter" stroke-width=".62362" style="paint-order:fill markers stroke">
   <path d="m7.7472 4.3258v9.8025l1.5708-.40001v-8.8751z" points="7.7472157,14.128355 9.3179905,13.728347 9.3179905,4.8532176 7.7472157,4.3258122 " fill="#353564"/>
   <path d="m7.7472 14.128 9.2691 8.0804 2.175-3.6504-9.8734-4.83z" points="17.016332,22.20874 19.191342,18.558307 9.3179905,13.728347 7.7472157,14.128355 " fill="#afafde"/>
   <path d="m9.318 4.8532 9.8734-14.117v27.822l-9.8734-4.83z" points="19.191342,-9.2633985 19.191342,18.558307 9.3179905,13.728347 9.3179905,4.8532176 " fill="#e9e9ff"/>
   <path d="m7.7472 4.3258 9.2691-21.669 2.175 8.08-9.8734 14.117z" points="17.016332,-17.343381 19.191342,-9.2633985 9.3179905,4.8532176 7.7472157,4.3258122 " fill="#4d4d9f"/>
   <path d="m17.016-17.343v39.552l2.175-3.6504v-27.822z" points="17.016332,22.20874 19.191342,18.558307 19.191342,-9.2633985 17.016332,-17.343381 " fill="#d7d7ff"/>
   <path d="m7.7472 4.3258 9.2691-21.669v39.552l-9.2691-8.0804z" points="17.016332,-17.343381 17.016332,22.20874 7.7472157,14.128355 7.7472157,4.3258122 " fill="#8686bf"/>
  </g>
  <g stroke="#080000" stroke-linejoin="round" stroke-width="1.3771" style="paint-order:fill markers stroke">
   <path d="m2.4409 7.96v7.787l7.0158-1.0822v-6.0814z" points="2.4409376,15.74702 9.4566895,14.66479 9.4566895,8.5833468 2.4409376,7.9599735 " fill="#353564"/>
   <path d="m2.4409 15.747 9.6234 6.8287 9.5707-5.0271-12.178-2.8838z" points="12.064303,22.575697 21.635043,17.548614 9.4566895,14.66479 2.4409376,15.74702 " fill="#afafde"/>
   <path d="m9.4567 8.5833 12.178-2.8939v11.859l-12.178-2.8838z" points="21.635043,5.689476 21.635043,17.548614 9.4566895,14.66479 9.4566895,8.5833468 " fill="#e9e9ff"/>
   <path d="m2.4409 7.96 9.6234-6.0853 9.5707 3.8148-12.178 2.8939z" points="12.064303,1.8747205 21.635043,5.689476 9.4566895,8.5833468 2.4409376,7.9599735 " fill="#4d4d9f"/>
   <path d="m12.064 1.8747v20.701l9.5707-5.0271v-11.859z" points="12.064303,22.575697 21.635043,17.548614 21.635043,5.689476 12.064303,1.8747205 " fill="#d7d7ff"/>
   <path d="m2.4409 7.96 9.6234-6.0853v20.701l-9.6234-6.8287z" points="12.064303,1.8747205 12.064303,22.575697 2.4409376,15.74702 2.4409376,7.9599735 " fill="#8686bf"/>
  </g>
  <g stroke-linejoin="miter" stroke-width=".62362" style="paint-order:fill markers stroke">
   <path d="m5.8999 11.541v.21871l.7316-.07374v-.21004z" points="5.8998536,11.759992 6.6314555,11.686252 6.6314555,11.476214 5.8998536,11.541282 " fill="#353564"/>
   <path d="m5.8999 11.541-1.3577-.08486v-.02734l1.3577.33091z" points="4.5421703,11.456424 4.5421703,11.429086 5.8998536,11.759992 5.8998536,11.541282 " fill="#8686bf"/>
   <path d="m5.8999 11.541-1.3577-.08486-.10276.0081 2.192.01172z" points="4.5421703,11.456424 4.4394063,11.464497 6.6314555,11.476214 5.8998536,11.541282 " fill="#4d4d9f"/>
   <path d="m6.6315 11.476-2.192-.01172v-.02748l2.192.24924z" points="4.4394063,11.464497 4.4394063,11.437017 6.6314555,11.686252 6.6314555,11.476214 " fill="#e9e9ff"/>
   <path d="m5.8999 11.76-1.3577-.33091-.10276.0079 2.192.24924z" points="4.5421703,11.429086 4.4394063,11.437017 6.6314555,11.686252 5.8998536,11.759992 " fill="#afafde"/>
   <path d="m4.5422 11.456v-.02734l-.10276.0079v.02748z" points="4.5421703,11.429086 4.4394063,11.437017 4.4394063,11.464497 4.5421703,11.456424 " fill="#d7d7ff"/>
  </g>
  <g stroke-linejoin="miter" stroke-width=".62362" style="paint-order:fill markers stroke">
   <path d="m10.118 21.061v-.0047l2.228-1.7465v.0039z" points="10.117868,21.056799 12.345881,19.310273 12.345881,19.31422 10.117868,21.061478 " fill="#353564"/>
   <path d="m10.118 21.061-.08628-.15261 2.2114-1.7002.10291.10554z" points="10.031592,20.90887 12.242968,19.208677 12.345881,19.31422 10.117868,21.061478 " fill="#4d4d9f"/>
   <path d="m10.032 20.909v-.0046l2.2114-1.6995v.0039z" points="10.031592,20.904266 12.242968,19.204784 12.242968,19.208677 10.031592,20.90887 " fill="#d7d7ff"/>
   <path d="m12.346 19.314-.10291-.10554v-.0039l.10291.10549z" points="12.242968,19.208677 12.242968,19.204784 12.345881,19.310273 12.345881,19.31422 " fill="#e9e9ff"/>
   <path d="m10.118 21.057-.08628-.15253 2.2114-1.6995.10291.10549z" points="10.031592,20.904266 12.242968,19.204784 12.345881,19.310273 10.117868,21.056799 " fill="#afafde"/>
   <path d="m10.118 21.061-.08628-.15261v-.0046l.08628.15253z" points="10.031592,20.90887 10.031592,20.904266 10.117868,21.056799 10.117868,21.061478 " fill="#8686bf"/>
  </g>
 </g>
</svg>
