<svg class="feather feather-zap" width="24" height="24" version="1.1" viewBox="0 0 24 24" xmlns="http://www.w3.org/2000/svg">
 <g transform="translate(.024719 .4472)" stroke="#000" stroke-linecap="round" stroke-linejoin="round" stroke-width="1.9994">
  <circle cx="2.1134" cy="6.7923" r="1.1137" style="paint-order:fill markers stroke"/>
  <circle cx="2.1134" cy="16.313" r="1.1137" style="paint-order:fill markers stroke"/>
  <circle cx="2.1134" cy="11.553" r="1.1137" style="paint-order:fill markers stroke"/>
  <circle cx="2.1134" cy="21.074" r="1.1137" style="paint-order:fill markers stroke"/>
  <circle cx="2.1134" cy="2.0318" r="1.1137" style="paint-order:fill markers stroke"/>
 </g>
 <g transform="translate(-.093546 .40352)" stroke="#000" stroke-linecap="round" stroke-linejoin="round" stroke-width="1.9994">
  <circle cx="7.1626" cy="6.836" r="1.1137" style="paint-order:fill markers stroke"/>
  <circle cx="7.1626" cy="16.357" r="1.1137" style="paint-order:fill markers stroke"/>
  <circle cx="7.1626" cy="11.596" r="1.1137" style="paint-order:fill markers stroke"/>
  <circle cx="7.1626" cy="21.117" r="1.1137" style="paint-order:fill markers stroke"/>
  <circle cx="7.1626" cy="2.0755" r="1.1137" style="paint-order:fill markers stroke"/>
 </g>
 <g stroke="#000" stroke-linecap="round" stroke-linejoin="round" stroke-width="1.9994">
  <circle cx="12.48" cy="6.5407" r="1.1137" style="paint-order:fill markers stroke"/>
  <circle cx="12.524" cy="17.11" r="1.1137" style="paint-order:fill markers stroke"/>
  <circle cx="12" cy="12" r="1.1137" style="paint-order:fill markers stroke"/>
  <circle cx="16.018" cy="2.5663" r="1.1137" style="paint-order:fill markers stroke"/>
  <circle cx="21.56" cy="10.821" r="1.1137" style="paint-order:fill markers stroke"/>
  <circle cx="17.717" cy="15.625" r="1.1137" style="paint-order:fill markers stroke"/>
  <circle cx="13.393" cy="21.739" r="1.1137" style="paint-order:fill markers stroke"/>
  <circle cx="21.866" cy="3.2215" r="1.1137" style="paint-order:fill markers stroke"/>
  <circle cx="20.857" cy="21.128" r="1.1137" style="paint-order:fill markers stroke"/>
  <circle cx="17.164" cy="7.9278" r="1.1137" style="paint-order:fill markers stroke"/>
 </g>
</svg>
