<svg class="feather feather-folder-plus" width="24" height="24" fill="none" stroke="currentColor" stroke-linecap="round" stroke-linejoin="round" stroke-width="2" version="1.1" viewBox="0 0 24 24" xmlns="http://www.w3.org/2000/svg">
 <path d="M22 19a2 2 0 0 1-2 2H4a2 2 0 0 1-2-2V5a2 2 0 0 1 2-2h5l2 3h9a2 2 0 0 1 2 2z"/>
 <text x="6.1239367" y="12.393682" fill="#000000" font-family="OpenSymbol" font-size="21.333px" letter-spacing="0px" stroke="none" word-spacing="0px" style="line-height:1.25" xml:space="preserve"><tspan x="6.1239367" y="31.329594" font-family="Ubuntu"/></text>
 <path d="m9.5234 11.037-2.5696 2.5696 2.5696 2.5696c0.15389 0.15389 0.15389 0.40263 0 0.55652-0.076747 0.07674-0.1775 0.11532-0.27826 0.11532-0.10076 0-0.20151-0.03857-0.27826-0.11532l-2.8483-2.8479c-0.15389-0.15389-0.15389-0.40263 0-0.55651l2.8479-2.8479c0.15389-0.15389 0.40263-0.15389 0.55651 0 0.15389 0.15389 0.15389 0.40263 3.936e-4 0.55651zm8.3579 2.2914c0.15389 0.15389 0.15389 0.40263 0 0.55651l-2.8479 2.8479c-0.07675 0.07674-0.1775 0.11532-0.27826 0.11532-0.10076 0-0.20151-0.03857-0.27826-0.11532-0.15389-0.15389-0.15389-0.40263 0-0.55652l2.5696-2.5696-2.5696-2.5696c-0.15389-0.15389-0.15389-0.40262 0-0.55651 0.15389-0.15389 0.40263-0.15389 0.55652 0z" fill="#000" stroke-width=".78715"/>
</svg>
