<?xml version="1.0" encoding="UTF-8" standalone="no"?>
<svg
   xmlns:dc="http://purl.org/dc/elements/1.1/"
   xmlns:cc="http://creativecommons.org/ns#"
   xmlns:rdf="http://www.w3.org/1999/02/22-rdf-syntax-ns#"
   xmlns:svg="http://www.w3.org/2000/svg"
   xmlns="http://www.w3.org/2000/svg"
   xmlns:sodipodi="http://sodipodi.sourceforge.net/DTD/sodipodi-0.dtd"
   xmlns:inkscape="http://www.inkscape.org/namespaces/inkscape"
   width="24"
   height="24"
   viewBox="0 0 24 24"
   fill="none"
   stroke="currentColor"
   stroke-width="2"
   stroke-linecap="round"
   stroke-linejoin="round"
   class="feather feather-folder-plus"
   version="1.1"
   id="svg911"
   sodipodi:docname="folder-script.svg"
   inkscape:version="0.92.3 (2405546, 2018-03-11)">
  <metadata
     id="metadata917">
    <rdf:RDF>
      <cc:Work
         rdf:about="">
        <dc:format>image/svg+xml</dc:format>
        <dc:type
           rdf:resource="http://purl.org/dc/dcmitype/StillImage" />
        <dc:title></dc:title>
      </cc:Work>
    </rdf:RDF>
  </metadata>
  <defs
     id="defs915" />
  <sodipodi:namedview
     pagecolor="#ffffff"
     bordercolor="#666666"
     borderopacity="1"
     objecttolerance="10"
     gridtolerance="10"
     guidetolerance="10"
     inkscape:pageopacity="0"
     inkscape:pageshadow="2"
     inkscape:window-width="1920"
     inkscape:window-height="1016"
     id="namedview913"
     showgrid="false"
     inkscape:zoom="24.24787"
     inkscape:cx="10.520306"
     inkscape:cy="12.517979"
     inkscape:window-x="0"
     inkscape:window-y="27"
     inkscape:window-maximized="1"
     inkscape:current-layer="svg911" />
  <path
     d="M22 19a2 2 0 0 1-2 2H4a2 2 0 0 1-2-2V5a2 2 0 0 1 2-2h5l2 3h9a2 2 0 0 1 2 2z"
     id="path905" />
  <text
     xml:space="preserve"
     style="font-style:normal;font-variant:normal;font-weight:normal;font-stretch:normal;font-size:21.33333397px;line-height:1.25;font-family:OpenSymbol;-inkscape-font-specification:OpenSymbol;letter-spacing:0px;word-spacing:0px;fill:#000000;fill-opacity:1;stroke:none"
     x="6.1239367"
     y="12.393682"
     id="text921"><tspan
       sodipodi:role="line"
       id="tspan919"
       x="6.1239367"
       y="31.329594"
       style="font-style:normal;font-variant:normal;font-weight:normal;font-stretch:normal;font-family:Ubuntu;-inkscape-font-specification:Ubuntu" /></text>
  <path
     d="m 9.5234333,11.037382 -2.5696469,2.569647 2.5696469,2.569647 c 0.1538876,0.153888 0.1538876,0.402627 0,0.556515 -0.076747,0.07674 -0.177502,0.115317 -0.2782571,0.115317 -0.100755,0 -0.20151,-0.03857 -0.278257,-0.115317 L 6.1186217,13.885286 c -0.1538875,-0.153887 -0.1538875,-0.402626 0,-0.556514 l 2.8479039,-2.847903 c 0.1538876,-0.153888 0.4026266,-0.153888 0.5565141,0 0.1538876,0.153888 0.1538876,0.402626 3.936e-4,0.556513 z m 8.3579447,2.29139 c 0.153888,0.153888 0.153888,0.402627 0,0.556514 l -2.847903,2.847905 c -0.07675,0.07674 -0.177503,0.115317 -0.278257,0.115317 -0.100755,0 -0.201511,-0.03857 -0.278258,-0.115317 -0.153887,-0.153888 -0.153887,-0.402627 0,-0.556515 l 2.569646,-2.569647 -2.569646,-2.569647 c -0.153887,-0.153887 -0.153887,-0.402625 0,-0.556513 0.153888,-0.153888 0.402627,-0.153888 0.556515,0 z"
     id="path1026"
     inkscape:connector-curvature="0"
     sodipodi:nodetypes="ccsssccssscsssssscssss"
     style="stroke-width:0.78714865;fill:#000000;fill-opacity:1" />
</svg>
