<svg class="feather feather-fast-forward" width="24" height="24" version="1.1" viewBox="0 0 24 24" xmlns="http://www.w3.org/2000/svg">
 <g fill="#e9e9e9" stroke="#000" stroke-linecap="round" stroke-linejoin="round" stroke-width="1.9994">
  <path d="m15.441 3.1841a1.4435 1.4435 0 0 1-1.5088 1.3636 1.4435 1.4435 0 0 1-1.3749-1.4985 1.4435 1.4435 0 0 1 1.4881-1.3862 1.4435 1.4435 0 0 1 1.3974 1.4776" style="paint-order:fill markers stroke"/>
  <path d="m13.966 11.087a1.4435 1.4435 0 0 1-1.5088 1.3636 1.4435 1.4435 0 0 1-1.3749-1.4985 1.4435 1.4435 0 0 1 1.4881-1.3862 1.4435 1.4435 0 0 1 1.3974 1.4776" style="paint-order:fill markers stroke"/>
  <path d="m11.441 20.521a1.4435 1.4435 0 0 1-1.5088 1.3636 1.4435 1.4435 0 0 1-1.3749-1.4985 1.4435 1.4435 0 0 1 1.4881-1.3862 1.4435 1.4435 0 0 1 1.3974 1.4776" style="paint-order:fill markers stroke"/>
  <path d="m21.505 14.078a1.4435 1.4435 0 0 1-1.5088 1.3636 1.4435 1.4435 0 0 1-1.3749-1.4985 1.4435 1.4435 0 0 1 1.4881-1.3862 1.4435 1.4435 0 0 1 1.3974 1.4776" style="paint-order:fill markers stroke"/>
  <path d="m5.0574 12.078a1.4435 1.4435 0 0 1-1.5088 1.3636 1.4435 1.4435 0 0 1-1.3749-1.4985 1.4435 1.4435 0 0 1 1.4881-1.3862 1.4435 1.4435 0 0 1 1.3974 1.4776" style="paint-order:fill markers stroke"/>
 </g>
 <g fill="none" stroke="#000" stroke-width="1px">
  <path d="m13.998 3.062-10.382 8.9235 6.3572 8.4277 10.119-6.4156z"/>
  <path d="m20.092 13.998-7.6403-3.0328-8.836 1.0207"/>
  <path d="m13.998 3.062-1.5456 7.9028-2.4787 9.4484"/>
 </g>
</svg>
