<svg class="feather feather-check-circle" width="48" height="24" fill="none" stroke="currentColor" stroke-linecap="round" stroke-linejoin="round" stroke-width="2" version="1.1" viewBox="0 0 48 24" xmlns="http://www.w3.org/2000/svg">
 <g transform="translate(.11691 2.5148)" fill="none" stroke="#020202" stroke-linecap="round" stroke-linejoin="round" stroke-width="1.3419">
  <rect x=".67097" y=".67097" width="1.2756" height="2.3873"/>
  <rect x="45.82" y=".67097" width="1.2756" height="2.3873"/>
  <rect x=".67097" y="4.4812" width="1.2756" height="2.3873"/>
  <rect x="3.3268" y="4.4812" width="1.2756" height="2.3873"/>
  <rect x="45.82" y="4.4812" width="1.2756" height="2.3873"/>
  <rect x="43.164" y="4.4812" width="1.2756" height="2.3873"/>
  <rect x="40.508" y="4.4812" width="1.2756" height="2.3873"/>
  <rect x="37.852" y="4.4812" width="1.2756" height="2.3873"/>
  <rect x="35.196" y="4.4812" width="1.2756" height="2.3873"/>
  <rect x="32.541" y="4.4812" width="1.2756" height="2.3873"/>
  <rect x=".67097" y="8.2915" width="1.2756" height="2.3873"/>
  <rect x="3.3268" y="8.2915" width="1.2756" height="2.3873"/>
  <rect x="45.82" y="8.2915" width="1.2756" height="2.3873"/>
  <rect x="43.164" y="8.2915" width="1.2756" height="2.3873"/>
  <rect x="40.508" y="8.2915" width="1.2756" height="2.3873"/>
  <rect x="37.852" y="8.2915" width="1.2756" height="2.3873"/>
  <rect x="35.196" y="8.2915" width="1.2756" height="2.3873"/>
  <rect x="32.541" y="8.2915" width="1.2756" height="2.3873"/>
  <g transform="translate(-.21027 11.431)">
   <rect x=".88124" y=".67097" width="1.2756" height="2.3873"/>
   <rect x="3.537" y=".67097" width="1.2756" height="2.3873"/>
   <rect x="6.1928" y=".67097" width="1.2756" height="2.3873"/>
   <rect x="8.8486" y=".67097" width="1.2756" height="2.3873"/>
   <rect x="46.03" y=".67097" width="1.2756" height="2.3873"/>
   <rect x="43.374" y=".67097" width="1.2756" height="2.3873"/>
   <rect x="40.718" y=".67097" width="1.2756" height="2.3873"/>
   <rect x="38.062" y=".67097" width="1.2756" height="2.3873"/>
   <rect x="35.407" y=".67097" width="1.2756" height="2.3873"/>
   <rect x="32.751" y=".67097" width="1.2756" height="2.3873"/>
   <rect x="30.095" y=".67097" width="1.2756" height="2.3873"/>
   <rect x="27.439" y=".67097" width="1.2756" height="2.3873"/>
   <rect x="24.783" y=".67097" width="1.2756" height="2.3873"/>
   <rect x="22.128" y=".67097" width="1.2756" height="2.3873"/>
   <rect x="19.472" y=".67097" width="1.2756" height="2.3873"/>
   <rect x="16.816" y=".67097" width="1.2756" height="2.3873"/>
   <rect x="14.16" y=".67097" width="1.2756" height="2.3873"/>
   <rect x="11.504" y=".67097" width="1.2756" height="2.3873"/>
  </g>
  <g transform="translate(-.21027 15.241)">
   <rect x=".88124" y=".67097" width="1.2756" height="2.3873"/>
   <rect x="3.537" y=".67097" width="1.2756" height="2.3873"/>
   <rect x="6.1928" y=".67097" width="1.2756" height="2.3873"/>
   <rect x="8.8486" y=".67097" width="1.2756" height="2.3873"/>
   <rect x="46.03" y=".67097" width="1.2756" height="2.3873"/>
   <rect x="43.374" y=".67097" width="1.2756" height="2.3873"/>
   <rect x="40.718" y=".67097" width="1.2756" height="2.3873"/>
   <rect x="38.062" y=".67097" width="1.2756" height="2.3873"/>
   <rect x="35.407" y=".67097" width="1.2756" height="2.3873"/>
   <rect x="32.751" y=".67097" width="1.2756" height="2.3873"/>
   <rect x="30.095" y=".67097" width="1.2756" height="2.3873"/>
   <rect x="27.439" y=".67097" width="1.2756" height="2.3873"/>
   <rect x="24.783" y=".67097" width="1.2756" height="2.3873"/>
   <rect x="22.128" y=".67097" width="1.2756" height="2.3873"/>
   <rect x="19.472" y=".67097" width="1.2756" height="2.3873"/>
   <rect x="16.816" y=".67097" width="1.2756" height="2.3873"/>
   <rect x="14.16" y=".67097" width="1.2756" height="2.3873"/>
   <rect x="11.504" y=".67097" width="1.2756" height="2.3873"/>
  </g>
 </g>
</svg>
