<?xml version="1.0" encoding="UTF-8" standalone="no"?>
<svg
   xmlns:dc="http://purl.org/dc/elements/1.1/"
   xmlns:cc="http://creativecommons.org/ns#"
   xmlns:rdf="http://www.w3.org/1999/02/22-rdf-syntax-ns#"
   xmlns:svg="http://www.w3.org/2000/svg"
   xmlns="http://www.w3.org/2000/svg"
   xmlns:sodipodi="http://sodipodi.sourceforge.net/DTD/sodipodi-0.dtd"
   xmlns:inkscape="http://www.inkscape.org/namespaces/inkscape"
   width="24"
   height="24"
   viewBox="0 0 24 24"
   fill="none"
   stroke="currentColor"
   stroke-width="2"
   stroke-linecap="round"
   stroke-linejoin="round"
   class="feather feather-box"
   version="1.1"
   id="svg3501"
   sodipodi:docname="msd.svg"
   inkscape:version="0.92.3 (2405546, 2018-03-11)">
  <metadata
     id="metadata3507">
    <rdf:RDF>
      <cc:Work
         rdf:about="">
        <dc:format>image/svg+xml</dc:format>
        <dc:type
           rdf:resource="http://purl.org/dc/dcmitype/StillImage" />
        <dc:title />
      </cc:Work>
    </rdf:RDF>
  </metadata>
  <defs
     id="defs3505" />
  <sodipodi:namedview
     pagecolor="#ffffff"
     bordercolor="#666666"
     borderopacity="1"
     objecttolerance="10"
     gridtolerance="10"
     guidetolerance="10"
     inkscape:pageopacity="0"
     inkscape:pageshadow="2"
     inkscape:window-width="1920"
     inkscape:window-height="1016"
     id="namedview3503"
     showgrid="false"
     inkscape:zoom="8.0073774"
     inkscape:cx="-15.386565"
     inkscape:cy="-3.0001856"
     inkscape:window-x="0"
     inkscape:window-y="27"
     inkscape:window-maximized="1"
     inkscape:current-layer="svg3501" />
  <polyline
     transform="translate(0.9632482,0.05452348)"
     points="16 18 22 12 16 6"
     id="polyline5367" />
  <polyline
     transform="translate(-0.96324819,-0.05452349)"
     points="8 6 2 12 8 18"
     id="polyline5369" />
  <g
     aria-label="d2"
     style="font-style:normal;font-variant:normal;font-weight:normal;font-stretch:normal;line-height:1.25;font-family:Ubuntu;-inkscape-font-specification:Ubuntu;letter-spacing:0px;word-spacing:0px;baseline-shift:baseline;fill:#000000;fill-opacity:1;stroke:none"
     id="text5979">
    <path
       d="m 11.235937,12.2451 q -0.204,-0.168 -0.588,-0.324 -0.384,-0.156 -0.8399995,-0.156 -0.48,0 -0.828,0.18 -0.336,0.168 -0.552,0.48 -0.216,0.3 -0.312,0.72 -0.096,0.42 -0.096,0.9 0,1.092 0.54,1.692 0.54,0.588 1.44,0.588 0.4559995,0 0.7559995,-0.036 0.312,-0.048 0.48,-0.096 z m 0,-4.1999999 1.116,-0.192 V 16.9851 q -0.384,0.108 -0.984,0.216 -0.6,0.108 -1.3799995,0.108 -0.72,0 -1.296,-0.228 -0.576,-0.228 -0.984,-0.648 -0.408,-0.42 -0.636,-1.02 -0.216,-0.612 -0.216,-1.368 0,-0.72 0.18,-1.32 0.192,-0.6 0.552,-1.032 0.36,-0.432 0.876,-0.672 0.528,-0.24 1.2,-0.24 0.5399995,0 0.9479995,0.144 0.42,0.144 0.624,0.276 z"
       style=""
       id="path7217" />
    <path
       d="m 16.964662,8.3403001 q 0,0.2807999 -0.117,0.5459999 -0.1092,0.2574 -0.2964,0.5148 -0.1872,0.2496 -0.4212,0.4992 -0.234,0.2418 -0.468,0.4758 -0.1326,0.1326 -0.312,0.312 -0.1716,0.1794 -0.3276,0.3744 -0.156,0.195 -0.2652,0.3744 -0.1014,0.1794 -0.1014,0.312 h 2.4882 v 0.6162 h -3.276 q -0.0078,-0.0468 -0.0078,-0.0936 0,-0.0468 0,-0.0858 0,-0.3666 0.117,-0.6786 0.1248,-0.3198 0.3198,-0.6006 0.195,-0.2808 0.4368,-0.5304 0.2418,-0.2496 0.4758,-0.4836 0.195,-0.1872 0.3666,-0.3666 0.1794,-0.1872 0.312,-0.3666 0.1404,-0.1872 0.2184,-0.3822 0.0858,-0.195 0.0858,-0.4133999 0,-0.234 -0.078,-0.3978 -0.0702,-0.1638 -0.195,-0.273 -0.1248,-0.1092 -0.2964,-0.156 -0.1638,-0.0546 -0.351,-0.0546 -0.2262,0 -0.4134,0.0624 -0.1872,0.0624 -0.3354,0.1482 -0.1482,0.078 -0.2496,0.1716 -0.1014,0.0858 -0.156,0.1326 l -0.3588,-0.5148 q 0.0702,-0.078 0.2106,-0.1872 0.1404,-0.117 0.3354,-0.2184 0.195,-0.1014 0.4368,-0.1716 0.2418,-0.0702 0.5226,-0.0702 0.8502,0 1.2714,0.3978 0.429,0.39 0.429,1.1076 z"
       style="font-size:64.99999762%;baseline-shift:super"
       id="path7219" />
  </g>
</svg>
