<svg class="feather feather-box" width="24" height="24" fill="none" stroke="currentColor" stroke-linecap="round" stroke-linejoin="round" stroke-width="2" version="1.1" viewBox="0 0 24 24" xmlns="http://www.w3.org/2000/svg">
 <polyline transform="translate(.96325 .054523)" points="16 18 22 12 16 6"/>
 <polyline transform="translate(-.96325 -.054523)" points="8 6 2 12 8 18"/>
 <g fill="#000" stroke="none" aria-label="d2">
  <path d="m11.236 12.245q-0.204-0.168-0.588-0.324t-0.84-0.156q-0.48 0-0.828 0.18-0.336 0.168-0.552 0.48-0.216 0.3-0.312 0.72t-0.096 0.9q0 1.092 0.54 1.692 0.54 0.588 1.44 0.588 0.456 0 0.756-0.036 0.312-0.048 0.48-0.096zm0-4.2 1.116-0.192v9.132q-0.384 0.108-0.984 0.216t-1.38 0.108q-0.72 0-1.296-0.228t-0.984-0.648-0.636-1.02q-0.216-0.612-0.216-1.368 0-0.72 0.18-1.32 0.192-0.6 0.552-1.032t0.876-0.672q0.528-0.24 1.2-0.24 0.54 0 0.948 0.144 0.42 0.144 0.624 0.276z" style=""/>
  <path d="m16.965 8.3403q0 0.2808-0.117 0.546-0.1092 0.2574-0.2964 0.5148-0.1872 0.2496-0.4212 0.4992-0.234 0.2418-0.468 0.4758-0.1326 0.1326-0.312 0.312-0.1716 0.1794-0.3276 0.3744t-0.2652 0.3744q-0.1014 0.1794-0.1014 0.312h2.4882v0.6162h-3.276q-0.0078-0.0468-0.0078-0.0936t0-0.0858q0-0.3666 0.117-0.6786 0.1248-0.3198 0.3198-0.6006t0.4368-0.5304 0.4758-0.4836q0.195-0.1872 0.3666-0.3666 0.1794-0.1872 0.312-0.3666 0.1404-0.1872 0.2184-0.3822 0.0858-0.195 0.0858-0.4134 0-0.234-0.078-0.3978-0.0702-0.1638-0.195-0.273t-0.2964-0.156q-0.1638-0.0546-0.351-0.0546-0.2262 0-0.4134 0.0624t-0.3354 0.1482q-0.1482 0.078-0.2496 0.1716-0.1014 0.0858-0.156 0.1326l-0.3588-0.5148q0.0702-0.078 0.2106-0.1872 0.1404-0.117 0.3354-0.2184t0.4368-0.1716 0.5226-0.0702q0.8502 0 1.2714 0.3978 0.429 0.39 0.429 1.1076z" baseline-shift="super"/>
 </g>
</svg>
