<svg class="feather feather-box" width="24" height="24" fill="none" stroke-linecap="round" stroke-linejoin="round" stroke-width="2" version="1.1" viewBox="0 0 24 24" xmlns="http://www.w3.org/2000/svg">
 <g stroke="#8d8d8d">
  <path d="M12.89 1.45l8 4A2 2 0 0 1 22 7.24v9.53a2 2 0 0 1-1.11 1.79l-8 4a2 2 0 0 1-1.79 0l-8-4a2 2 0 0 1-1.1-1.8V7.24a2 2 0 0 1 1.11-1.79l8-4a2 2 0 0 1 1.78 0z"/>
  <polyline points="2.32 6.16 12 11 21.68 6.16"/>
  <line x1="12" x2="12" y1="22.76" y2="11"/>
 </g>
 <g transform="matrix(1.1967 0 0 1.1967 -7.3388 .21265)" stroke="#0d0600">
  <polyline transform="translate(4.1595 -2.1505)" points="15 3 21 3 21 9"/>
  <polyline transform="translate(4.1595 -2.1505)" points="9 21 3 21 3 15"/>
  <line x1="25.16" x2="18.16" y1=".8495" y2="7.8495"/>
  <line x1="7.1595" x2="14.16" y1="18.85" y2="11.85"/>
 </g>
</svg>
