<?xml version="1.0" encoding="UTF-8" standalone="no"?>
<svg
   xmlns:dc="http://purl.org/dc/elements/1.1/"
   xmlns:cc="http://creativecommons.org/ns#"
   xmlns:rdf="http://www.w3.org/1999/02/22-rdf-syntax-ns#"
   xmlns:svg="http://www.w3.org/2000/svg"
   xmlns="http://www.w3.org/2000/svg"
   xmlns:sodipodi="http://sodipodi.sourceforge.net/DTD/sodipodi-0.dtd"
   xmlns:inkscape="http://www.inkscape.org/namespaces/inkscape"
   width="24"
   height="24"
   viewBox="0 0 24 24"
   fill="none"
   stroke="currentColor"
   stroke-width="2"
   stroke-linecap="round"
   stroke-linejoin="round"
   class="feather feather-box"
   version="1.1"
   id="svg1002"
   sodipodi:docname="noperiodic.svg"
   inkscape:version="0.92.3 (2405546, 2018-03-11)">
  <metadata
     id="metadata1008">
    <rdf:RDF>
      <cc:Work
         rdf:about="">
        <dc:format>image/svg+xml</dc:format>
        <dc:type
           rdf:resource="http://purl.org/dc/dcmitype/StillImage" />
        <dc:title />
      </cc:Work>
    </rdf:RDF>
  </metadata>
  <defs
     id="defs1006" />
  <sodipodi:namedview
     pagecolor="#ffffff"
     bordercolor="#666666"
     borderopacity="1"
     objecttolerance="10"
     gridtolerance="10"
     guidetolerance="10"
     inkscape:pageopacity="0"
     inkscape:pageshadow="2"
     inkscape:window-width="1920"
     inkscape:window-height="1016"
     id="namedview1004"
     showgrid="false"
     inkscape:zoom="26.65729"
     inkscape:cx="0.55485909"
     inkscape:cy="9.2582816"
     inkscape:window-x="0"
     inkscape:window-y="27"
     inkscape:window-maximized="1"
     inkscape:current-layer="svg1002" />
  <g
     id="g1429"
     style="stroke:#8d8d8d;stroke-opacity:1">
    <path
       id="path996"
       d="M12.89 1.45l8 4A2 2 0 0 1 22 7.24v9.53a2 2 0 0 1-1.11 1.79l-8 4a2 2 0 0 1-1.79 0l-8-4a2 2 0 0 1-1.1-1.8V7.24a2 2 0 0 1 1.11-1.79l8-4a2 2 0 0 1 1.78 0z"
       style="stroke:#8d8d8d;stroke-opacity:1" />
    <polyline
       id="polyline998"
       points="2.32 6.16 12 11 21.68 6.16"
       style="stroke:#8d8d8d;stroke-opacity:1" />
    <line
       id="line1000"
       y2="11"
       x2="12"
       y1="22.76"
       x1="12"
       style="stroke:#8d8d8d;stroke-opacity:1" />
  </g>
  <g
     id="g3422"
     style="stroke:#0d0600;stroke-opacity:1"
     transform="matrix(1.1967456,0,0,1.1967456,-7.3388292,0.21264865)">
    <polyline
       id="polyline1623"
       points="15 3 21 3 21 9"
       transform="translate(4.1595161,-2.1504952)"
       style="stroke:#0d0600;stroke-opacity:1" />
    <polyline
       id="polyline1625"
       points="9 21 3 21 3 15"
       transform="translate(4.1595161,-2.1504952)"
       style="stroke:#0d0600;stroke-opacity:1" />
    <line
       id="line1627"
       y2="7.8495049"
       x2="18.159515"
       y1="0.84950483"
       x1="25.159515"
       style="stroke:#0d0600;stroke-opacity:1" />
    <line
       id="line1629"
       y2="11.849504"
       x2="14.159516"
       y1="18.849504"
       x1="7.1595159"
       style="stroke:#0d0600;stroke-opacity:1" />
  </g>
</svg>
