<svg class="feather feather-box" width="24" height="24" fill="none" stroke="currentColor" stroke-linecap="round" stroke-linejoin="round" stroke-width="2" version="1.1" viewBox="0 0 24 24" xmlns="http://www.w3.org/2000/svg">
 <g stroke="#8d8d8d">
  <path d="M12.89 1.45l8 4A2 2 0 0 1 22 7.24v9.53a2 2 0 0 1-1.11 1.79l-8 4a2 2 0 0 1-1.79 0l-8-4a2 2 0 0 1-1.1-1.8V7.24a2 2 0 0 1 1.11-1.79l8-4a2 2 0 0 1 1.78 0z" fill="#fdfdfd"/>
  <polyline points="2.32 6.16 12 11 21.68 6.16"/>
  <line x1="12" x2="12" y1="22.76" y2="11"/>
 </g>
 <g transform="matrix(1.1963 0 0 1.1963 -2.356 -2.356)">
  <polyline points="20 10 14 10 14 4" fill="none" stroke="#000"/>
  <line x1="14" x2="21" y1="10" y2="3" fill="none" stroke="#000"/>
  <polyline points="4 14 10 14 10 20" fill="none" stroke="#080808"/>
  <line x1="3" x2="10" y1="21" y2="14" fill="none" stroke="#000"/>
 </g>
</svg>
