<?xml version="1.0" encoding="UTF-8" standalone="no"?>
<svg
   xmlns:dc="http://purl.org/dc/elements/1.1/"
   xmlns:cc="http://creativecommons.org/ns#"
   xmlns:rdf="http://www.w3.org/1999/02/22-rdf-syntax-ns#"
   xmlns:svg="http://www.w3.org/2000/svg"
   xmlns="http://www.w3.org/2000/svg"
   xmlns:sodipodi="http://sodipodi.sourceforge.net/DTD/sodipodi-0.dtd"
   xmlns:inkscape="http://www.inkscape.org/namespaces/inkscape"
   width="24"
   height="24"
   viewBox="0 0 24 24"
   fill="none"
   stroke="currentColor"
   stroke-width="2"
   stroke-linecap="round"
   stroke-linejoin="round"
   class="feather feather-box"
   version="1.1"
   id="svg3501"
   sodipodi:docname="positions.svg"
   inkscape:version="0.92.3 (2405546, 2018-03-11)">
  <metadata
     id="metadata3507">
    <rdf:RDF>
      <cc:Work
         rdf:about="">
        <dc:format>image/svg+xml</dc:format>
        <dc:type
           rdf:resource="http://purl.org/dc/dcmitype/StillImage" />
        <dc:title></dc:title>
      </cc:Work>
    </rdf:RDF>
  </metadata>
  <defs
     id="defs3505" />
  <sodipodi:namedview
     pagecolor="#ffffff"
     bordercolor="#666666"
     borderopacity="1"
     objecttolerance="10"
     gridtolerance="10"
     guidetolerance="10"
     inkscape:pageopacity="0"
     inkscape:pageshadow="2"
     inkscape:window-width="1920"
     inkscape:window-height="1016"
     id="namedview3503"
     showgrid="false"
     inkscape:zoom="13.755541"
     inkscape:cx="0.5970052"
     inkscape:cy="8.5591339"
     inkscape:window-x="0"
     inkscape:window-y="27"
     inkscape:window-maximized="1"
     inkscape:current-layer="svg3501" />
  <path
     style="fill:none;stroke:#000000;stroke-width:1.99937008;stroke-linecap:round;stroke-linejoin:round;stroke-opacity:1;stroke-miterlimit:4;stroke-dasharray:none"
     d="M 1.4903085,1.7544191 V 21.964457 H 22.463675"
     id="path6559"
     inkscape:connector-curvature="0" />
  <path
     style="fill:none;stroke:#000000;stroke-width:1px;stroke-linecap:butt;stroke-linejoin:miter;stroke-opacity:1"
     d="M 6.6882139,3.6445665 C 6.0828125,3.5310537 6.3038696,3.5355195 6.0339321,3.5355195 c -0.109047,0 -0.2180939,0 -0.3271409,0 -0.048465,0 -0.096931,0 -0.145396,0 -0.012116,0 -0.024594,-0.00294 -0.036349,0 -0.096972,0.024243 -0.1883597,0.062792 -0.2544429,0.1453959 -0.015138,0.018923 0.00955,0.050425 0,0.072698 C 5.014716,4.3506838 5.1252074,3.1980628 5.1252074,4.8440831 c 0,0.174376 0.03403,0.3712284 0.072698,0.5452348 0.010837,0.048767 0.017795,0.099012 0.036349,0.145396 0.099872,0.2496792 0.2686409,0.5061491 0.5452349,0.5815838 0.058447,0.01594 0.1213172,-0.00432 0.1817449,0 0.1094392,0.00782 0.2178019,0.027237 0.3271409,0.036349 0.036223,0.00302 0.072698,0 0.109047,0 0.084814,0 0.1701473,0.00937 0.2544429,0 0.1346361,-0.01496 0.2655625,-0.054794 0.3998389,-0.072698 0.04804,-0.00641 0.099418,0.015326 0.1453959,0 C 7.335989,6.0336523 7.4628112,5.9568845 7.5969386,5.8982037 7.6567164,5.8720509 7.7194406,5.8528487 7.7786835,5.8255058 7.8770807,5.7800917 7.9695962,5.7221642 8.0694754,5.6801098 8.2001799,5.6250763 8.3439773,5.6010688 8.4693143,5.5347139 8.5279205,5.5036871 8.8244756,5.2337726 8.8691532,5.171224 8.9416599,5.0697146 9.0093804,4.9617166 9.0508981,4.8440831 c 0.051378,-0.1455695 0.036349,-0.5223573 0.036349,-0.6542818 0,-0.1783882 0.010851,-0.5207124 -0.036349,-0.6906308 C 8.9819661,3.2510151 8.775674,3.0237965 8.5420123,2.9175867 8.4463615,2.8741091 8.3504248,2.8812377 8.2512204,2.8812377 c -0.024233,0 -0.049709,-0.00766 -0.072698,0 -0.051405,0.017135 -0.1115463,0.030386 -0.1453959,0.072698 -0.067699,0.084624 -0.119112,0.1856558 -0.145396,0.2907919 -0.023509,0.094037 0,0.1938613 0,0.2907919 0,0.1016455 -0.00199,0.075519 0.036349,0.2544429 0.061632,0.2876168 0.079903,0.3415505 0.2180939,0.6179328 0.043686,0.087372 0.097956,0.1690509 0.145396,0.2544429 0.013158,0.023683 0.027781,0.046995 0.036349,0.072698 0.015798,0.047393 0.017795,0.099012 0.036349,0.145396 0.00636,0.01591 0.027533,0.021656 0.036349,0.036349 0.027878,0.046464 0.050691,0.09588 0.072698,0.1453959 0.0265,0.059625 0.043518,0.123385 0.072698,0.1817449 0.031595,0.063191 0.091912,0.1132047 0.109047,0.181745 0.02057,0.082282 -0.00564,0.1698165 0,0.2544429 0.0065,0.097469 0.026629,0.1935917 0.036349,0.2907919 0.00241,0.024112 0,0.048465 0,0.072698 0,0.072698 0,0.1453959 0,0.2180939 0,0.048465 0.023208,0.1028485 0,0.145396 C 8.6339171,6.5051567 8.5483031,6.5825437 8.4693143,6.6615325 8.2901012,6.8407456 8.1619764,6.935811 7.9240795,7.0250224 c -0.093552,0.035082 -0.1938613,0.048465 -0.2907919,0.072698 -0.096931,0.024233 -0.1917546,0.059493 -0.2907919,0.072698 -0.08407,0.011209 -0.1700496,0.00844 -0.2544429,0 C 6.6371714,7.1253302 6.669141,7.1155954 6.288375,6.9886734 6.252026,6.9765571 6.2145453,6.9674175 6.179328,6.9523244 6.1295234,6.9309795 6.0722473,6.9179416 6.0339321,6.8796264 5.895845,6.7415394 5.7998782,6.6269401 5.7794892,6.4434386 c -0.00669,-0.060211 0,-0.1211633 0,-0.181745 0,-0.084814 -0.024943,-0.1733792 0,-0.2544429 0.025695,-0.083508 0.090069,-0.1504717 0.1453959,-0.2180939 0.054253,-0.066309 0.1211633,-0.1211633 0.181745,-0.181745 0.024233,-0.024233 0.044183,-0.053688 0.072698,-0.072698 0.081279,-0.054186 0.1716063,-0.093623 0.254443,-0.145396 0.014531,-0.00908 0.022092,-0.026844 0.036349,-0.036349 0.058784,-0.039189 0.1238665,-0.068532 0.181745,-0.109047 0.1238,-0.08666 0.2829569,-0.2394794 0.3998389,-0.3271408 0.095739,-0.071804 0.297033,-0.1711696 0.3634898,-0.290792 0.071135,-0.1280425 0.031407,-0.6068775 0,-0.6906307 C 7.3785965,3.8377661 7.2935556,3.7660669 7.2334487,3.6809154 7.148158,3.560087 7.0801598,3.4253231 6.9790058,3.3174256 6.7273422,3.0489844 6.2203001,2.8505616 5.8521871,2.8812377 c -0.085379,0.00712 -0.1748953,0.00453 -0.2544429,0.036349 -0.1617684,0.064707 -0.1817449,0.3375036 -0.1817449,0.4725368 0,0.2547603 -0.034035,0.3490763 0.1090469,0.5815839 0.1203917,0.1956364 0.2393511,0.2033088 0.4361879,0.2907919 0.133784,0.059459 0.2699484,0.1142019 0.3998389,0.1817449 0.4871925,0.2533401 0.4789343,0.3499739 1.0177717,0.4361879 0.043428,0.00695 0.6473886,-0.00569 0.7269797,0 0.1706087,0.012186 0.2459896,0.061478 0.3998389,0.1453959 0.062023,0.033831 0.1257463,0.065971 0.1817449,0.109047 0.1020887,0.07853 0.1877533,0.1771639 0.290792,0.2544429 0.2842458,0.2131844 0.01887,-0.1157424 0.2544429,0.2544429 0.046908,0.073713 0.099089,0.1440026 0.1453959,0.218094 0.014359,0.022975 0.033653,0.045739 0.036349,0.072698 0.00964,0.09645 0,0.1938613 0,0.2907919 0,0.096931 0.028506,0.1981477 0,0.2907919 -0.027862,0.090551 -0.2794358,0.3014733 -0.3271409,0.3634899 -0.047909,0.062282 -0.1370457,0.3187554 -0.2544429,0.3271409 -0.2175397,0.015539 -0.4361879,0 -0.6542818,0 -0.060582,0 -0.1268469,0.025619 -0.1817449,0 C 7.7215507,7.0783282 7.5684011,6.9104947 7.4151936,6.6615325 7.3809971,6.6059631 7.363129,6.5416877 7.3424957,6.4797876 c -0.00383,-0.011495 0,-0.024233 0,-0.036349 0,-0.257591 -0.033286,-0.3883006 0.072698,-0.6179328 C 7.4961317,5.6501401 7.6653617,5.5002874 7.7786836,5.3529689 7.8319556,5.2837159 7.8716566,5.2047727 7.9240796,5.134875 7.9446416,5.107459 7.9791456,5.091563 7.9967776,5.062177 8.281801,4.5871377 8.0518154,4.9587537 8.1785224,4.5532912 8.3944821,3.8622203 8.2780713,4.4648837 8.3602673,3.9717074"
     id="path6565"
     inkscape:connector-curvature="0" />
  <path
     style="fill:none;stroke:#000000;stroke-width:1px;stroke-linecap:butt;stroke-linejoin:miter;stroke-opacity:1"
     d="m 20.646225,14.476565 c -0.254443,0 -0.508885,0 -0.763328,0 -0.619701,0 -2.385798,-0.03453 -2.980617,0.109047 -0.663038,0.160044 -0.577642,0.419104 -0.690631,0.908725 -0.101958,0.441819 -0.215539,0.657332 -0.109047,1.163167 0.04917,0.233545 0.119287,0.48831 0.290792,0.654282 0.225874,0.218588 0.534782,0.346456 0.836026,0.436188 0.279657,0.0833 0.58094,0.05813 0.872376,0.0727 0.220083,0.011 0.715165,0.18704 0.617933,-0.218094 -0.05725,-0.238562 -0.180884,-0.456581 -0.254443,-0.690631 -0.05991,-0.190634 -0.09191,-0.389046 -0.145396,-0.581583 -0.06771,-0.243767 -0.147027,-0.48417 -0.218094,-0.72698 -0.07433,-0.25397 -0.145396,-0.508886 -0.218094,-0.763329 -0.03588,-0.125597 -0.1959,-0.647381 -0.218094,-0.836027 -0.01133,-0.09627 0,-0.193861 0,-0.290792 0,-0.08481 -0.02057,-0.172161 0,-0.254443 0.06308,-0.252318 0.21145,-0.486643 0.472537,-0.581583 0.148467,-0.05399 0.314909,-0.02584 0.472537,-0.03635 0.02418,-0.0016 0.04847,0 0.0727,0 0.03635,0 0.07378,-0.0088 0.109047,0 0.01662,0.0042 0.03635,0.01921 0.03635,0.03635 0,0.182148 -0.0025,0.366261 -0.03635,0.545234 -0.09192,0.485834 -0.222543,0.938005 -0.508886,1.344913 -0.11351,0.161304 -0.271477,0.286432 -0.399839,0.436188 -0.01763,0.02057 -0.02319,0.04901 -0.03635,0.0727 -0.04744,0.08539 -0.120535,0.159974 -0.145396,0.254443 -0.03713,0.141096 -0.03052,0.290404 -0.03635,0.436188 -0.0063,0.157386 0,0.315024 0,0.472537 0,0.181744 0,0.363489 0,0.545234 0,0.13328 0,0.26656 0,0.399839 0,0.169629 -0.01745,0.340158 0,0.508886 0.01907,0.18436 0.06612,0.364931 0.109047,0.545235 0.01775,0.07455 0.04198,0.147888 0.0727,0.218094 0.0543,0.124107 0.07833,0.275987 0.181745,0.36349 0.07457,0.0631 0.193158,0.0332 0.290792,0.03635 0.278531,0.009 0.558983,0.03011 0.836027,0 0.283515,-0.03082 0.598739,-0.02355 0.836027,-0.181745 0.272239,-0.181493 0.37856,-1.274739 0.399838,-1.417611 0.0414,-0.27797 0.08693,-0.555862 0.109047,-0.836027 0.03149,-0.398915 0.06241,-0.679659 -0.254442,-0.981422 -0.131209,-0.124961 -0.765824,-0.408506 -0.945074,-0.508886 -0.334432,-0.187282 -0.517588,-0.308644 -0.799678,-0.545235 -0.342812,-0.287519 -0.641092,-0.645398 -1.054121,-0.836027 -0.06958,-0.03211 -0.145396,-0.04847 -0.218094,-0.0727 -0.03635,-0.01212 -0.07478,-0.01921 -0.109046,-0.03635 -0.01533,-0.0077 -0.02423,-0.02423 -0.03635,-0.03635 -0.07323,-0.07323 -0.141303,-0.157553 -0.254443,-0.0727 -0.06854,0.05141 -0.134221,0.110459 -0.181745,0.181745 -0.378816,0.568224 -0.062,0.243744 -0.218094,0.399839"
     id="path6569"
     inkscape:connector-curvature="0" />
  <path
     style="fill:none;stroke:#000000;stroke-width:1px;stroke-linecap:butt;stroke-linejoin:miter;stroke-opacity:1"
     d="m 20.100991,3.7172644 c -0.07758,-0.0097 -0.32275,-0.052554 -0.436188,-0.036349 -0.07488,0.010697 -0.195798,0.079724 -0.254443,0.109047 -0.09693,0.048465 -0.196448,0.092071 -0.290792,0.145396 -0.202082,0.1142203 -0.699549,0.4072705 -0.908725,0.5815838 -0.105308,0.087757 -0.198822,0.1891417 -0.290792,0.2907919 -0.176354,0.1949182 -0.483464,0.517585 -0.581583,0.7996777 -0.09349,0.268796 -0.133431,0.6579076 -0.145396,0.9450737 -0.01998,0.4794824 -0.07028,0.4115434 0.254442,0.7633288 0.05262,0.057008 0.108144,0.1208622 0.181745,0.1453959 0.187118,0.062373 0.384441,0.1152077 0.581584,0.109047 0.341037,-0.010657 0.750212,-0.1719468 0.981423,-0.4361879 0.06817,-0.077908 0.08997,-0.189043 0.109047,-0.2907919 0.01786,-0.09527 0.04844,-0.2068319 0,-0.2907919 C 19.159444,6.3065801 18.959983,6.0957363 18.756078,5.8982037 18.569838,5.7177835 18.336327,5.5928824 18.138145,5.4256669 17.850949,5.1833453 17.414141,4.7684793 17.193072,4.4442442 17.125847,4.3456488 17.098139,4.22524 17.047676,4.1171033 17.013304,4.0434498 16.960958,3.9771609 16.938629,3.8990094 16.893263,3.7402282 16.90228,3.5539743 16.90228,3.3901235 c 0,-0.060582 -0.01314,-0.1226059 0,-0.1817449 0.03581,-0.1611464 0.232996,-0.3199919 0.36349,-0.3634899 0.270058,-0.090019 0.477106,-0.082593 0.69063,0.072698 0.06929,0.050392 0.14343,0.1051145 0.181745,0.1817449 0.04834,0.096687 0.03635,0.4080559 0.03635,0.5088859 0,0.1211633 0.02628,0.2452118 0,0.3634899 -0.04702,0.2115821 -0.238224,0.3713117 -0.290792,0.5815838 -0.0444,0.1775945 -0.03635,0.5262627 -0.03635,0.7269797 0,0.145396 0,0.2907919 0,0.4361879 0,0.2100937 -0.01803,0.5094472 0.03635,0.7269798 0.01314,0.052568 0.04162,0.1010051 0.0727,0.1453959 0.09717,0.1388127 0.185013,0.2418639 0.327141,0.3271409 0.01039,0.00623 0.02454,0.00272 0.03635,0 0.146033,-0.0337 0.308169,-0.031122 0.436188,-0.1090469 0.215745,-0.1313233 0.437109,-0.3522224 0.472537,-0.6179329 0.01441,-0.1080903 0.02996,-0.2222896 0,-0.3271408 C 19.146332,5.5738655 18.73191,5.6033838 18.537984,5.5710628 18.284455,5.528808 18.029791,5.49313 17.774655,5.4620159 c -0.241744,-0.029481 -0.48436,-0.051601 -0.726979,-0.072698 -0.03621,-0.00315 -0.0728,-0.00279 -0.109047,0 -0.597922,0.045994 -0.131885,0.036349 -0.654282,0.036349 -0.121163,0 -0.242327,0 -0.36349,0 -0.02423,0 -0.08036,0.022989 -0.0727,0 0.0388,-0.1164039 0.132832,-0.1075016 0.218094,-0.145396 0.564033,-0.2506815 -0.268571,0.039489 0.72698,-0.1817449 0.05289,-0.011755 0.09154,-0.066714 0.145396,-0.072698 0.49075,-0.054528 0.532372,0.031092 1.017771,0.072698 0.08387,0.00719 1.073887,0.06114 1.272215,0.036349 0.125521,-0.01569 0.244203,-0.066946 0.36349,-0.109047 0.180487,-0.063701 0.371103,-0.1530092 0.508886,-0.2907919 0.239903,-0.2399033 0.218094,-0.1936189 0.218094,-0.3998389"
     id="path6571"
     inkscape:connector-curvature="0" />
  <path
     style="fill:none;stroke:#000000;stroke-width:1px;stroke-linecap:butt;stroke-linejoin:miter;stroke-opacity:1"
     d="m 8.3239184,14.840055 c -0.5470104,0 -1.2681985,-0.04854 -1.7811004,0.181745 -0.3073152,0.137978 -0.5945857,0.350692 -0.7996778,0.617933 -0.2082515,0.271358 -0.3047268,0.616505 -0.3998389,0.945074 -0.040428,0.139662 0,0.290791 0,0.436187 0,0.02423 -0.017135,0.05556 0,0.0727 0.3031505,0.303151 0.5573263,0.689476 0.9450737,0.872376 0.5543838,0.261502 0.8097611,0.191517 1.1268187,-0.0727 0.026327,-0.02194 0.057372,-0.04205 0.072698,-0.0727 0.063878,-0.127757 0.040853,-0.42331 0.036349,-0.508886 -0.00577,-0.109566 0.0044,-0.22527 -0.036349,-0.327141 -0.082607,-0.206515 -0.2199496,-0.386688 -0.3271409,-0.581581 -0.026113,-0.04748 -0.048465,-0.09693 -0.072698,-0.145396 -0.084814,-0.169629 -0.2172494,-0.322918 -0.2544429,-0.508886 -0.061827,-0.309136 -0.027081,-0.629953 -0.036349,-0.945074 -0.00285,-0.09689 0,-0.193861 0,-0.290792 0,-0.219213 -0.030652,-0.420025 0.109047,-0.617933 0.084138,-0.119195 0.1858693,-0.254334 0.3271408,-0.290791 0.5654347,-0.145919 1.1686332,0.0835 1.6720535,0.290791 0.1306565,0.0538 0.2976802,0.09306 0.3634899,0.218094 0.073361,0.139386 0.01678,0.315921 0,0.472537 -0.019745,0.18429 -0.00818,0.389738 -0.109047,0.545235 -0.3714209,0.572607 -1.3766422,1.281653 -1.8537984,1.672054 -0.1729129,0.141474 -0.379029,0.254388 -0.5088858,0.436187 -0.063772,0.08928 -0.029906,0.217613 -0.036349,0.327141 -0.00569,0.09676 -0.00805,0.194196 0,0.290792 0.00415,0.04978 -0.00125,0.112499 0.036349,0.145396 0.069444,0.06076 0.164365,0.08903 0.2544429,0.109047 0.2959509,0.06577 0.58938,0.04859 0.8723757,-0.0727 0.1113667,-0.04773 0.2191404,-0.120387 0.2907919,-0.218094 0.1212465,-0.165336 0.1437708,-0.546416 0.109047,-0.72698 C 8.2877398,16.905564 8.275323,16.686198 8.1421735,16.548458 7.8563063,16.252733 7.3228784,16.009307 6.9063079,15.857827 6.7622744,15.805451 6.6036983,15.787569 6.47012,15.712431 6.3023833,15.618079 6.3087878,15.427608 6.2520261,15.276243 c -0.00602,-0.01604 -0.024233,-0.02423 -0.036349,-0.03635 -0.036349,-0.145396 -0.083368,-0.288533 -0.109047,-0.436188 -0.022931,-0.13185 -0.014348,-0.26783 -0.036349,-0.399839 -0.014501,-0.08701 -0.041726,-0.171851 -0.072698,-0.254443 -0.00602,-0.01604 -0.048465,-0.02423 -0.036349,-0.03635 0.017135,-0.01713 0.072698,-0.02423 0.072698,0 0,0.02423 -0.048465,0 -0.072698,0 0.2059776,0.218094 0.4445355,0.409486 0.6179328,0.654282 0.042021,0.05932 0.014257,0.146808 0,0.218094 -0.034598,0.172991 -0.054631,0.35761 -0.145396,0.508886 -0.071654,0.119423 -0.8634893,0.964674 -0.9814227,1.09047 -0.010627,0.01134 -0.1446008,0.140625 -0.1453959,0.145396 -0.00996,0.05976 0,0.121163 0,0.181744 0,0.08481 -0.076742,0.21833 0,0.254443 0.5960885,0.280513 0.8188642,-0.103099 1.1631676,-0.508885 0.1740539,-0.205135 0.358353,-0.41069 0.4725368,-0.654282 0.090399,-0.632793 -0.014531,-0.344604 0.218094,-0.763329 0.013158,-0.02368 0.0099,-0.06682 0.036349,-0.0727 0.094622,-0.02103 0.1943758,-0.01 0.2907919,0 0.2556618,0.02645 0.5110279,0.05999 0.7633287,0.109047 0.3895438,0.07575 0.5640013,0.121558 0.8723757,0.327141 0.042772,0.02851 0.069556,0.07614 0.109047,0.109047 0.033561,0.02797 0.078156,0.04181 0.109047,0.0727 0.054859,0.05486 0.096268,0.121699 0.1453959,0.181745 0.059924,0.07324 0.1267415,0.141089 0.181745,0.218094 0.00704,0.0099 0,0.02423 0,0.03635 0,0.01212 0,0.02423 0,0.03635 0,0.01212 0,0.04847 0,0.03635 0,-0.02423 0,-0.04847 0,-0.0727"
     id="path6573"
     inkscape:connector-curvature="0" />
</svg>
