<svg class="feather feather-box" width="24" height="24" fill="none" stroke="currentColor" stroke-linecap="round" stroke-linejoin="round" stroke-width="2" version="1.1" viewBox="0 0 24 24" xmlns="http://www.w3.org/2000/svg">
 <g fill="none" stroke="#000">
  <path d="m1.4903 1.7544v20.21h20.973" stroke-linecap="round" stroke-linejoin="round" stroke-width="1.9994"/>
  <g stroke-linecap="butt" stroke-linejoin="miter" stroke-width="1px">
   <path d="m6.6882 3.6446c-0.6054-0.11351-0.38434-0.10905-0.65428-0.10905h-0.32714-0.1454c-0.012116 0-0.024594-0.00294-0.036349 0-0.096972 0.024243-0.18836 0.062792-0.25444 0.1454-0.015138 0.018923 0.00955 0.050425 0 0.072698-0.25589 0.59707-0.1454-0.55555-0.1454 1.0905 0 0.17438 0.03403 0.37123 0.072698 0.54523 0.010837 0.048767 0.017795 0.099012 0.036349 0.1454 0.099872 0.24968 0.26864 0.50615 0.54523 0.58158 0.058447 0.01594 0.12132-0.00432 0.18174 0 0.10944 0.00782 0.2178 0.027237 0.32714 0.036349 0.036223 0.00302 0.072698 0 0.10905 0 0.084814 0 0.17015 0.00937 0.25444 0 0.13464-0.01496 0.26556-0.054794 0.39984-0.072698 0.04804-0.00641 0.099418 0.015326 0.1454 0 0.13889-0.046296 0.26571-0.12306 0.39984-0.18174 0.059778-0.026153 0.1225-0.045355 0.18174-0.072698 0.098397-0.045414 0.19091-0.10334 0.29079-0.1454 0.1307-0.055034 0.2745-0.079041 0.39984-0.1454 0.058606-0.031027 0.35516-0.30094 0.39984-0.36349 0.072507-0.10151 0.14023-0.20951 0.18174-0.32714 0.051378-0.14557 0.036349-0.52236 0.036349-0.65428 0-0.17839 0.010851-0.52071-0.036349-0.69063-0.068932-0.24816-0.27522-0.47537-0.50889-0.58158-0.095651-0.043478-0.19159-0.036349-0.29079-0.036349-0.024233 0-0.049709-0.00766-0.072698 0-0.051405 0.017135-0.11155 0.030386-0.1454 0.072698-0.067699 0.084624-0.11911 0.18566-0.1454 0.29079-0.023509 0.094037 0 0.19386 0 0.29079 0 0.10165-0.00199 0.075519 0.036349 0.25444 0.061632 0.28762 0.079903 0.34155 0.21809 0.61793 0.043686 0.087372 0.097956 0.16905 0.1454 0.25444 0.013158 0.023683 0.027781 0.046995 0.036349 0.072698 0.015798 0.047393 0.017795 0.099012 0.036349 0.1454 0.00636 0.01591 0.027533 0.021656 0.036349 0.036349 0.027878 0.046464 0.050691 0.09588 0.072698 0.1454 0.0265 0.059625 0.043518 0.12338 0.072698 0.18174 0.031595 0.063191 0.091912 0.1132 0.10905 0.18174 0.02057 0.082282-0.00564 0.16982 0 0.25444 0.0065 0.097469 0.026629 0.19359 0.036349 0.29079 0.00241 0.024112 0 0.048465 0 0.072698v0.21809c0 0.048465 0.023208 0.10285 0 0.1454-0.053491 0.098067-0.13911 0.17545-0.21809 0.25444-0.17921 0.17921-0.30734 0.27428-0.54523 0.36349-0.093552 0.035082-0.19386 0.048465-0.29079 0.072698-0.096931 0.024233-0.19175 0.059493-0.29079 0.072698-0.08407 0.011209-0.17005 0.00844-0.25444 0-0.45088-0.045088-0.41891-0.054823-0.79968-0.18174-0.036349-0.012116-0.07383-0.021256-0.10905-0.036349-0.049805-0.021345-0.10708-0.034383-0.1454-0.072698-0.13809-0.13809-0.23405-0.25269-0.25444-0.43619-0.00669-0.060211 0-0.12116 0-0.18174 0-0.084814-0.024943-0.17338 0-0.25444 0.025695-0.083508 0.090069-0.15047 0.1454-0.21809 0.054253-0.066309 0.12116-0.12116 0.18174-0.18174 0.024233-0.024233 0.044183-0.053688 0.072698-0.072698 0.081279-0.054186 0.17161-0.093623 0.25444-0.1454 0.014531-0.00908 0.022092-0.026844 0.036349-0.036349 0.058784-0.039189 0.12387-0.068532 0.18174-0.10905 0.1238-0.08666 0.28296-0.23948 0.39984-0.32714 0.095739-0.071804 0.29703-0.17117 0.36349-0.29079 0.071135-0.12804 0.031407-0.60688 0-0.69063-0.036597-0.097592-0.12164-0.16929-0.18175-0.25444-0.085291-0.12083-0.15329-0.25559-0.25444-0.36349-0.25166-0.26844-0.75871-0.46686-1.1268-0.43619-0.085379 0.00712-0.1749 0.00453-0.25444 0.036349-0.16177 0.064707-0.18174 0.3375-0.18174 0.47254 0 0.25476-0.034035 0.34908 0.10905 0.58158 0.12039 0.19564 0.23935 0.20331 0.43619 0.29079 0.13378 0.059459 0.26995 0.1142 0.39984 0.18174 0.48719 0.25334 0.47893 0.34997 1.0178 0.43619 0.043428 0.00695 0.64739-0.00569 0.72698 0 0.17061 0.012186 0.24599 0.061478 0.39984 0.1454 0.062023 0.033831 0.12575 0.065971 0.18174 0.10905 0.10209 0.07853 0.18775 0.17716 0.29079 0.25444 0.28425 0.21318 0.01887-0.11574 0.25444 0.25444 0.046908 0.073713 0.099089 0.144 0.1454 0.21809 0.014359 0.022975 0.033653 0.045739 0.036349 0.072698 0.00964 0.09645 0 0.19386 0 0.29079 0 0.096931 0.028506 0.19815 0 0.29079-0.027862 0.090551-0.27944 0.30147-0.32714 0.36349-0.047909 0.062282-0.13705 0.31876-0.25444 0.32714-0.21754 0.015539-0.43619 0-0.65428 0-0.060582 0-0.12685 0.025619-0.18174 0-0.27523-0.12844-0.42838-0.29627-0.58158-0.54523-0.034196-0.055569-0.052065-0.11984-0.072698-0.18174-0.00383-0.011495 0-0.024233 0-0.036349 0-0.25759-0.033286-0.3883 0.072698-0.61793 0.080938-0.17537 0.25017-0.32522 0.36349-0.47254 0.053272-0.069253 0.092973-0.1482 0.1454-0.21809 0.020562-0.027416 0.055066-0.043312 0.072698-0.072698 0.28502-0.47504 0.055038-0.10342 0.18174-0.50889 0.21596-0.69107 0.099549-0.088408 0.18174-0.58158"/>
   <path d="m20.646 14.477h-0.76333c-0.6197 0-2.3858-0.03453-2.9806 0.10905-0.66304 0.16004-0.57764 0.4191-0.69063 0.90872-0.10196 0.44182-0.21554 0.65733-0.10905 1.1632 0.04917 0.23354 0.11929 0.48831 0.29079 0.65428 0.22587 0.21859 0.53478 0.34646 0.83603 0.43619 0.27966 0.0833 0.58094 0.05813 0.87238 0.0727 0.22008 0.011 0.71516 0.18704 0.61793-0.21809-0.05725-0.23856-0.18088-0.45658-0.25444-0.69063-0.05991-0.19063-0.09191-0.38905-0.1454-0.58158-0.06771-0.24377-0.14703-0.48417-0.21809-0.72698-0.07433-0.25397-0.1454-0.50889-0.21809-0.76333-0.03588-0.1256-0.1959-0.64738-0.21809-0.83603-0.01133-0.09627 0-0.19386 0-0.29079 0-0.08481-0.02057-0.17216 0-0.25444 0.06308-0.25232 0.21145-0.48664 0.47254-0.58158 0.14847-0.05399 0.31491-0.02584 0.47254-0.03635 0.02418-0.0016 0.04847 0 0.0727 0 0.03635 0 0.07378-0.0088 0.10905 0 0.01662 0.0042 0.03635 0.01921 0.03635 0.03635 0 0.18215-0.0025 0.36626-0.03635 0.54523-0.09192 0.48583-0.22254 0.938-0.50889 1.3449-0.11351 0.1613-0.27148 0.28643-0.39984 0.43619-0.01763 0.02057-0.02319 0.04901-0.03635 0.0727-0.04744 0.08539-0.12054 0.15997-0.1454 0.25444-0.03713 0.1411-0.03052 0.2904-0.03635 0.43619-0.0063 0.15739 0 0.31502 0 0.47254v0.54523 0.39984c0 0.16963-0.01745 0.34016 0 0.50889 0.01907 0.18436 0.06612 0.36493 0.10905 0.54524 0.01775 0.07455 0.04198 0.14789 0.0727 0.21809 0.0543 0.12411 0.07833 0.27599 0.18174 0.36349 0.07457 0.0631 0.19316 0.0332 0.29079 0.03635 0.27853 9e-3 0.55898 0.03011 0.83603 0 0.28352-0.03082 0.59874-0.02355 0.83603-0.18174 0.27224-0.18149 0.37856-1.2747 0.39984-1.4176 0.0414-0.27797 0.08693-0.55586 0.10905-0.83603 0.03149-0.39892 0.06241-0.67966-0.25444-0.98142-0.13121-0.12496-0.76582-0.40851-0.94507-0.50889-0.33443-0.18728-0.51759-0.30864-0.79968-0.54524-0.34281-0.28752-0.64109-0.6454-1.0541-0.83603-0.06958-0.03211-0.1454-0.04847-0.21809-0.0727-0.03635-0.01212-0.07478-0.01921-0.10905-0.03635-0.01533-0.0077-0.02423-0.02423-0.03635-0.03635-0.07323-0.07323-0.1413-0.15755-0.25444-0.0727-0.06854 0.05141-0.13422 0.11046-0.18174 0.18174-0.37882 0.56822-0.062 0.24374-0.21809 0.39984"/>
   <path d="m20.101 3.7173c-0.07758-0.0097-0.32275-0.052554-0.43619-0.036349-0.07488 0.010697-0.1958 0.079724-0.25444 0.10905-0.09693 0.048465-0.19645 0.092071-0.29079 0.1454-0.20208 0.11422-0.69955 0.40727-0.90872 0.58158-0.10531 0.087757-0.19882 0.18914-0.29079 0.29079-0.17635 0.19492-0.48346 0.51758-0.58158 0.79968-0.09349 0.2688-0.13343 0.65791-0.1454 0.94507-0.01998 0.47948-0.07028 0.41154 0.25444 0.76333 0.05262 0.057008 0.10814 0.12086 0.18174 0.1454 0.18712 0.062373 0.38444 0.11521 0.58158 0.10905 0.34104-0.010657 0.75021-0.17195 0.98142-0.43619 0.06817-0.077908 0.08997-0.18904 0.10905-0.29079 0.01786-0.09527 0.04844-0.20683 0-0.29079-0.14187-0.24591-0.34133-0.45675-0.54524-0.65428-0.18624-0.18042-0.41975-0.30532-0.61793-0.47254-0.2872-0.24232-0.724-0.65719-0.94507-0.98142-0.067225-0.098595-0.094933-0.219-0.1454-0.32714-0.034372-0.073654-0.086718-0.13994-0.10905-0.21809-0.045366-0.15878-0.036349-0.34504-0.036349-0.50889 0-0.060582-0.01314-0.12261 0-0.18174 0.03581-0.16115 0.233-0.31999 0.36349-0.36349 0.27006-0.090019 0.47711-0.082593 0.69063 0.072698 0.06929 0.050392 0.14343 0.10511 0.18174 0.18174 0.04834 0.096687 0.03635 0.40806 0.03635 0.50889 0 0.12116 0.02628 0.24521 0 0.36349-0.04702 0.21158-0.23822 0.37131-0.29079 0.58158-0.0444 0.17759-0.03635 0.52626-0.03635 0.72698v0.43619c0 0.21009-0.01803 0.50945 0.03635 0.72698 0.01314 0.052568 0.04162 0.10101 0.0727 0.1454 0.09717 0.13881 0.18501 0.24186 0.32714 0.32714 0.01039 0.00623 0.02454 0.00272 0.03635 0 0.14603-0.0337 0.30817-0.031122 0.43619-0.10905 0.21574-0.13132 0.43711-0.35222 0.47254-0.61793 0.01441-0.10809 0.02996-0.22229 0-0.32714-0.082287-0.28799-0.49671-0.25847-0.69064-0.29079-0.25353-0.042255-0.50819-0.077933-0.76333-0.10905-0.24174-0.029481-0.48436-0.051601-0.72698-0.072698-0.03621-0.00315-0.0728-0.00279-0.10905 0-0.59792 0.045994-0.13188 0.036349-0.65428 0.036349h-0.36349c-0.02423 0-0.08036 0.022989-0.0727 0 0.0388-0.1164 0.13283-0.1075 0.21809-0.1454 0.56403-0.25068-0.26857 0.039489 0.72698-0.18174 0.05289-0.011755 0.09154-0.066714 0.1454-0.072698 0.49075-0.054528 0.53237 0.031092 1.0178 0.072698 0.08387 0.00719 1.0739 0.06114 1.2722 0.036349 0.12552-0.01569 0.2442-0.066946 0.36349-0.10905 0.18049-0.063701 0.3711-0.15301 0.50889-0.29079 0.2399-0.2399 0.21809-0.19362 0.21809-0.39984"/>
   <path d="m8.3239 14.84c-0.54701 0-1.2682-0.04854-1.7811 0.18174-0.30732 0.13798-0.59459 0.35069-0.79968 0.61793-0.20825 0.27136-0.30473 0.6165-0.39984 0.94507-0.040428 0.13966 0 0.29079 0 0.43619 0 0.02423-0.017135 0.05556 0 0.0727 0.30315 0.30315 0.55733 0.68948 0.94507 0.87238 0.55438 0.2615 0.80976 0.19152 1.1268-0.0727 0.026327-0.02194 0.057372-0.04205 0.072698-0.0727 0.063878-0.12776 0.040853-0.42331 0.036349-0.50889-0.00577-0.10957 0.0044-0.22527-0.036349-0.32714-0.082607-0.20652-0.21995-0.38669-0.32714-0.58158-0.026113-0.04748-0.048465-0.09693-0.072698-0.1454-0.084814-0.16963-0.21725-0.32292-0.25444-0.50889-0.061827-0.30914-0.027081-0.62995-0.036349-0.94507-0.00285-0.09689 0-0.19386 0-0.29079 0-0.21921-0.030652-0.42002 0.10905-0.61793 0.084138-0.1192 0.18587-0.25433 0.32714-0.29079 0.56543-0.14592 1.1686 0.0835 1.6721 0.29079 0.13066 0.0538 0.29768 0.09306 0.36349 0.21809 0.073361 0.13939 0.01678 0.31592 0 0.47254-0.019745 0.18429-0.00818 0.38974-0.10905 0.54524-0.37142 0.57261-1.3766 1.2817-1.8538 1.6721-0.17291 0.14147-0.37903 0.25439-0.50889 0.43619-0.063772 0.08928-0.029906 0.21761-0.036349 0.32714-0.00569 0.09676-0.00805 0.1942 0 0.29079 0.00415 0.04978-0.00125 0.1125 0.036349 0.1454 0.069444 0.06076 0.16436 0.08903 0.25444 0.10905 0.29595 0.06577 0.58938 0.04859 0.87238-0.0727 0.11137-0.04773 0.21914-0.12039 0.29079-0.21809 0.12125-0.16534 0.14377-0.54642 0.10905-0.72698-0.036179-0.18813-0.048595-0.40749-0.18174-0.54523-0.28587-0.29572-0.8193-0.53915-1.2359-0.69063-0.14403-0.052376-0.30261-0.070258-0.43619-0.1454-0.16774-0.094352-0.16133-0.28482-0.21809-0.43619-0.00602-0.01604-0.024233-0.02423-0.036349-0.03635-0.036349-0.1454-0.083368-0.28853-0.10905-0.43619-0.022931-0.13185-0.014348-0.26783-0.036349-0.39984-0.014501-0.08701-0.041726-0.17185-0.072698-0.25444-0.00602-0.01604-0.048465-0.02423-0.036349-0.03635 0.017135-0.01713 0.072698-0.02423 0.072698 0s-0.048465 0-0.072698 0c0.20598 0.21809 0.44454 0.40949 0.61793 0.65428 0.042021 0.05932 0.014257 0.14681 0 0.21809-0.034598 0.17299-0.054631 0.35761-0.1454 0.50889-0.071654 0.11942-0.86349 0.96467-0.98142 1.0905-0.010627 0.01134-0.1446 0.14062-0.1454 0.1454-0.00996 0.05976 0 0.12116 0 0.18174 0 0.08481-0.076742 0.21833 0 0.25444 0.59609 0.28051 0.81886-0.1031 1.1632-0.50888 0.17405-0.20514 0.35835-0.41069 0.47254-0.65428 0.090399-0.63279-0.014531-0.3446 0.21809-0.76333 0.013158-0.02368 0.0099-0.06682 0.036349-0.0727 0.094622-0.02103 0.19438-0.01 0.29079 0 0.25566 0.02645 0.51103 0.05999 0.76333 0.10905 0.38954 0.07575 0.564 0.12156 0.87238 0.32714 0.042772 0.02851 0.069556 0.07614 0.10905 0.10905 0.033561 0.02797 0.078156 0.04181 0.10905 0.0727 0.054859 0.05486 0.096268 0.1217 0.1454 0.18174 0.059924 0.07324 0.12674 0.14109 0.18174 0.21809 0.00704 0.0099 0 0.02423 0 0.03635v0.03635 0.03635-0.0727"/>
  </g>
 </g>
</svg>
