<svg class="feather feather-alert-circle" width="24" height="24" fill="none" stroke="currentColor" stroke-linecap="round" stroke-linejoin="round" stroke-width="2" version="1.1" viewBox="0 0 24 24" xmlns="http://www.w3.org/2000/svg">
 <circle cx="12" cy="12" r="10"/>
 <g fill="#000" stroke="#000" stroke-linejoin="miter">
  <path d="m4.1574 14.021 3.8785-0.03009s0.11665 3.3722 3.9077 3.3722c3.9368 0 3.9077-3.4023 3.9077-3.4023h3.9077s-0.90401 5.8998-7.8153 5.8998c-6.9113 0-7.7861-5.8396-7.7861-5.8396z" stroke-linecap="butt" stroke-width="1.016px"/>
  <circle cx="12" cy="13.546" r="1.4143" stroke-linecap="square" stroke-width="1.9994" style="paint-order:fill markers stroke"/>
  <path d="m11.14 12.773 3.2953-3.5577-1.1081 5.2199" stroke-linecap="butt" stroke-width="1px"/>
 </g>
 <g fill="none" stroke="#000" stroke-linecap="butt" stroke-linejoin="miter" stroke-width="1px">
  <path d="m11.869 3.4994v2.6537"/>
  <path d="m20.34 11.869h-2.6537"/>
  <path d="m6.1968 11.898h-2.6537"/>
  <path d="m16.236 4.829-1.3269 2.2982"/>
  <path d="m19.258 7.7643-2.2982 1.3269"/>
  <path d="m4.5083 7.8226 2.2982 1.3269"/>
  <path d="m7.5018 4.7999 1.3269 2.2982"/>
 </g>
</svg>
