<svg class="feather feather-thermometer" width="24" height="24" stroke-linecap="round" stroke-linejoin="round" stroke-width="2" version="1.1" viewBox="0 0 24 24" xmlns="http://www.w3.org/2000/svg">
 <g fill="#000000" font-family="OpenSymbol" letter-spacing="0px" word-spacing="0px">
  <text x="-0.37058929" y="6.2734785" font-size="21.333px" style="line-height:1.25" xml:space="preserve"><tspan x="-0.37058929" y="25.209391"/></text>
  <text x="3.4588335" y="13.129381" font-size="14.667px" style="line-height:1.25" xml:space="preserve"><tspan x="3.4588335" y="26.14782"/></text>
  <text x="10.067676" y="12.573497" font-size="21.333px" style="line-height:1.25" xml:space="preserve"><tspan x="10.067676" y="31.509409"/></text>
 </g>
 <g style="font-feature-settings:normal;font-variant-caps:normal;font-variant-ligatures:normal;font-variant-numeric:normal" aria-label="q?">
  <path d="m4.5365 12.064q0 1.6213.64 2.5813.66133.96 2.0693.96.64 0 1.1947-.192.576-.21333.91733-.448v-6.3787q-.27733-.064-.704-.10667-.40533-.064-1.0667-.064-1.4293 0-2.24.98133-.81067.96-.81067 2.6667zm-2.6453-.04267q0-1.3227.384-2.3893.40533-1.088 1.1307-1.8347.74667-.768 1.792-1.1733 1.0453-.42667 2.368-.42667t2.4747.192q1.152.192 1.8987.40533v14.741h-2.5813v-4.3307q-.448.23467-1.1093.42667-.64.192-1.4293.192-1.1947 0-2.112-.40533-.91733-.42667-1.536-1.1947t-.96-1.8347q-.32-1.0667-.32-2.368z" style=""/>
  <path d="m17.501 4.6613q-.74667 0-1.4293.192-.68267.17067-1.4293.576l-.72533-1.984q.78933-.448 1.792-.704 1.024-.27733 2.0907-.27733 1.28 0 2.112.36267.832.34133 1.3227.87467.49067.53333.68267 1.1733.192.64.192 1.2373 0 .72533-.27733 1.3013-.256.576-.66133 1.0667t-.87467.93867q-.46933.42667-.87467.896-.40533.448-.68267.96-.256.512-.256 1.152 0 .10667 0 .256 0 .128.02133.256h-2.2187q-.04267-.21333-.064-.448-.02133-.256-.02133-.46933 0-.704.23467-1.2587.23467-.55467.59733-1.024.36267-.46933.768-.87467.42667-.40533.78933-.81067.36267-.40533.59733-.832t.23467-.93867q0-.704-.49067-1.152-.46933-.46933-1.4293-.46933zm1.664 11.52q0 .74667-.49067 1.216-.49067.46933-1.216.46933-.704 0-1.216-.46933-.49067-.46933-.49067-1.216 0-.74667.49067-1.216.512-.49067 1.216-.49067.72533 0 1.216.49067.49067.46933.49067 1.216z" style=""/>
 </g>
</svg>
