<svg class="feather feather-save" width="24" height="24" fill="none" stroke="currentColor" stroke-linecap="round" stroke-linejoin="round" stroke-width="2" version="1.1" viewBox="0 0 24 24" xmlns="http://www.w3.org/2000/svg">
 <defs>
  <clipPath id="clipPath16">
   <path d="m361.26 399.1c-1.861-0.081-3.496-0.166-5.614-0.286l-2.447-0.15-2.862-0.191c-3.761-0.262-7.473-0.558-11.278-0.904-15.212-1.367-30.658-3.527-43.576-5.94-13.014-2.419-23.79-5.046-32.578-7.639-17.37-5.194-28.241-10.35-31.852-14.866 5.26 2.461 11.249 4.909 18.3 7.345 6.961 2.432 14.99 4.846 23.951 7.165 8.957 2.315 19.034 4.538 29.987 6.453 10.938 1.919 22.739 3.485 34.438 4.518 2.91 0.26 5.878 0.491 8.704 0.683l2.063 0.137 2.441 0.146c1.111 0.062 2.697 0.152 3.993 0.21 5.444 0.251 10.59 0.343 15.394 0.302 9.54-0.106 17.617-0.758 23.907-1.791 6.226-1.044 11.171-2.393 13.841-4.059 1.323-0.832 2.241-1.73 1.912-2.745-0.126-0.503-0.542-1.036-1.662-1.602-1.049-0.559-2.92-1.177-6.084-1.716 3.485 0.388 6.664 1.099 8.761 1.762 2.117 0.674 3.474 1.335 4.508 1.969 1.89 1.258 2.478 2.422 2.249 3.488-0.571 2.123-3.831 3.961-9.847 5.37-5.988 1.405-14.724 2.423-26.707 2.648-1.583 0.031-3.223 0.047-4.916 0.047-4.671 0-9.732-0.119-15.026-0.354"/>
  </clipPath>
  <linearGradient id="linearGradient24" x2="1" gradientTransform="matrix(-186.75 0 0 186.75 417.8 384.29)" gradientUnits="userSpaceOnUse">
   <stop stop-color="#f1923d" offset="0"/>
   <stop stop-color="#e9643b" offset=".43176"/>
   <stop stop-color="#e33a37" offset=".82849"/>
   <stop stop-color="#e33a37" offset="1"/>
  </linearGradient>
  <clipPath id="clipPath54">
   <path d="m380.04 463.39c-6.049-3.07-12.494-5.861-19.708-8.532-7.647-2.865-16.348-5.635-25.859-8.234-10.379-2.832-21.285-5.279-32.415-7.276-12.011-2.162-24.893-3.845-37.257-4.866-3.122-0.261-6.29-0.489-9.419-0.677l-2.233-0.128-2.691-0.139c-1.2-0.056-2.889-0.135-4.276-0.182-3.414-0.122-6.824-0.184-10.133-0.184-2.192 0-4.385 0.027-6.515 0.08-9.852 0.277-18.778 1.162-25.811 2.559-7.011 1.417-12.1 3.146-14.713 4.997-2.022 1.441-1.822 2.143-1.743 2.428 0.036 0.161 0.144 0.653 1.364 1.323 0.859 0.499 2.649 1.228 6.293 1.864l-0.252 1.781c-3.407-0.369-7.027-1.126-9.689-2.024-2.069-0.703-3.684-1.469-5.115-2.43-2.189-1.596-3.119-3.307-2.755-5.124 0.735-2.973 4.559-5.435 11.366-7.315 7.244-2.005 17.075-3.247 29.217-3.692 3.102-0.117 6.438-0.176 9.917-0.176 3.767 0 7.733 0.069 11.79 0.207 2.023 0.065 3.8 0.141 6.109 0.25l2.659 0.14 3.109 0.183c4.156 0.257 8.166 0.552 12.253 0.902 15.902 1.343 32.715 3.635 47.342 6.454 13.037 2.5 24.946 5.43 35.398 8.712 18.775 5.973 30.844 12.118 34.905 17.771l2.155 2.999-3.293-1.671z"/>
  </clipPath>
  <linearGradient id="linearGradient62" x2="1" gradientTransform="matrix(-206.3 0 0 206.3 383.33 446.25)" gradientUnits="userSpaceOnUse">
   <stop stop-color="#f1923d" offset="0"/>
   <stop stop-color="#e9643b" offset=".43176"/>
   <stop stop-color="#e33a37" offset=".82849"/>
   <stop stop-color="#e33a37" offset="1"/>
  </linearGradient>
  <clipPath id="clipPath54-4">
   <path d="m380.04 463.39c-6.049-3.07-12.494-5.861-19.708-8.532-7.647-2.865-16.348-5.635-25.859-8.234-10.379-2.832-21.285-5.279-32.415-7.276-12.011-2.162-24.893-3.845-37.257-4.866-3.122-0.261-6.29-0.489-9.419-0.677l-2.233-0.128-2.691-0.139c-1.2-0.056-2.889-0.135-4.276-0.182-3.414-0.122-6.824-0.184-10.133-0.184-2.192 0-4.385 0.027-6.515 0.08-9.852 0.277-18.778 1.162-25.811 2.559-7.011 1.417-12.1 3.146-14.713 4.997-2.022 1.441-1.822 2.143-1.743 2.428 0.036 0.161 0.144 0.653 1.364 1.323 0.859 0.499 2.649 1.228 6.293 1.864l-0.252 1.781c-3.407-0.369-7.027-1.126-9.689-2.024-2.069-0.703-3.684-1.469-5.115-2.43-2.189-1.596-3.119-3.307-2.755-5.124 0.735-2.973 4.559-5.435 11.366-7.315 7.244-2.005 17.075-3.247 29.217-3.692 3.102-0.117 6.438-0.176 9.917-0.176 3.767 0 7.733 0.069 11.79 0.207 2.023 0.065 3.8 0.141 6.109 0.25l2.659 0.14 3.109 0.183c4.156 0.257 8.166 0.552 12.253 0.902 15.902 1.343 32.715 3.635 47.342 6.454 13.037 2.5 24.946 5.43 35.398 8.712 18.775 5.973 30.844 12.118 34.905 17.771l2.155 2.999z"/>
  </clipPath>
 </defs>
 <path d="M19 21H5a2 2 0 0 1-2-2V5a2 2 0 0 1 2-2h11l5 5v11a2 2 0 0 1-2 2z"/>
 <polyline points="17 21 17 13 7 13 7 21"/>
 <polyline points="7 3 7 8 15 8"/>
 <g stroke="#fffcfc">
  <g transform="matrix(.085832 0 0 -.085832 -12.412 55.133)" stroke-width="1.1651" style="paint-order:stroke fill markers">
   <g clip-path="url(#clipPath16)" stroke="#fffcfc" stroke-width="1.1651" style="paint-order:stroke fill markers">
    <g stroke="#fffcfc" stroke-width="1.1651" style="paint-order:stroke fill markers">
     <g stroke="#fffcfc" stroke-width="1.1651" style="paint-order:stroke fill markers">
      <path d="m361.26 399.1c-1.861-0.081-3.496-0.166-5.614-0.286l-2.447-0.15-2.862-0.191c-3.761-0.262-7.473-0.558-11.278-0.904-15.212-1.367-30.658-3.527-43.576-5.94-13.014-2.419-23.79-5.046-32.578-7.639-17.37-5.194-28.241-10.35-31.852-14.866 5.26 2.461 11.249 4.909 18.3 7.345 6.961 2.432 14.99 4.846 23.951 7.165 8.957 2.315 19.034 4.538 29.987 6.453 10.938 1.919 22.739 3.485 34.438 4.518 2.91 0.26 5.878 0.491 8.704 0.683l2.063 0.137 2.441 0.146c1.111 0.062 2.697 0.152 3.993 0.21 5.444 0.251 10.59 0.343 15.394 0.302 9.54-0.106 17.617-0.758 23.907-1.791 6.226-1.044 11.171-2.393 13.841-4.059 1.323-0.832 2.241-1.73 1.912-2.745-0.126-0.503-0.542-1.036-1.662-1.602-1.049-0.559-2.92-1.177-6.084-1.716 3.485 0.388 6.664 1.099 8.761 1.762 2.117 0.674 3.474 1.335 4.508 1.969 1.89 1.258 2.478 2.422 2.249 3.488-0.571 2.123-3.831 3.961-9.847 5.37-5.988 1.405-14.724 2.423-26.707 2.648-1.583 0.031-3.223 0.047-4.916 0.047-4.671 0-9.732-0.119-15.026-0.354" fill="url(#linearGradient24)" stroke="#fffcfc" stroke-width="1.1651" style="paint-order:stroke fill markers"/>
     </g>
    </g>
   </g>
  </g>
  <g transform="matrix(.085832 0 0 -.085832 -12.412 55.133)" stroke-width="1.1651" style="paint-order:stroke fill markers">
   <g clip-path="url(#clipPath54)" stroke="#fffcfc" stroke-width="1.1651" style="paint-order:stroke fill markers">
    <g stroke="#fffcfc" stroke-width="1.1651" style="paint-order:stroke fill markers">
     <g stroke="#fffcfc" stroke-width="1.1651" style="paint-order:stroke fill markers">
      <path d="m380.04 463.39c-6.049-3.07-12.494-5.861-19.708-8.532-7.647-2.865-16.348-5.635-25.859-8.234-10.379-2.832-21.285-5.279-32.415-7.276-12.011-2.162-24.893-3.845-37.257-4.866-3.122-0.261-6.29-0.489-9.419-0.677l-2.233-0.128-2.691-0.139c-1.2-0.056-2.889-0.135-4.276-0.182-3.414-0.122-6.824-0.184-10.133-0.184-2.192 0-4.385 0.027-6.515 0.08-9.852 0.277-18.778 1.162-25.811 2.559-7.011 1.417-12.1 3.146-14.713 4.997-2.022 1.441-1.822 2.143-1.743 2.428 0.036 0.161 0.144 0.653 1.364 1.323 0.859 0.499 2.649 1.228 6.293 1.864l-0.252 1.781c-3.407-0.369-7.027-1.126-9.689-2.024-2.069-0.703-3.684-1.469-5.115-2.43-2.189-1.596-3.119-3.307-2.755-5.124 0.735-2.973 4.559-5.435 11.366-7.315 7.244-2.005 17.075-3.247 29.217-3.692 3.102-0.117 6.438-0.176 9.917-0.176 3.767 0 7.733 0.069 11.79 0.207 2.023 0.065 3.8 0.141 6.109 0.25l2.659 0.14 3.109 0.183c4.156 0.257 8.166 0.552 12.253 0.902 15.902 1.343 32.715 3.635 47.342 6.454 13.037 2.5 24.946 5.43 35.398 8.712 18.775 5.973 30.844 12.118 34.905 17.771l2.155 2.999z" fill="url(#linearGradient62)" stroke="#fffcfc" stroke-width="1.1651" style="paint-order:stroke fill markers"/>
     </g>
    </g>
   </g>
  </g>
  <path d="m8.6989 18.326c-0.097505-0.20162-0.18823-0.415-0.27226-0.64022-0.084029-0.22514-0.16051-0.45783-0.22934-0.69815-0.068923-0.24024-0.126-0.48555-0.17132-0.73601-0.045405-0.25028-0.076562-0.49988-0.093299-0.74862-0.037079 0.05382-0.10926 0.17141-0.21681 0.35294-0.10755 0.18145-0.24024 0.4041-0.39817 0.66794-0.15802 0.26385-0.33449 0.55954-0.52932 0.88716-0.19492 0.3277-0.395 0.66459-0.59988 1.0108m0.10669 0.01605c-0.19501 0.33277-0.38487 0.65284-0.56966 0.96037-0.18488 0.30745-0.35363 0.58477-0.50666 0.83171-0.15287 0.24702-0.2823 0.45199-0.38813 0.61507-0.10583 0.16291-0.17896 0.26625-0.2193 0.30994-0.057078 0.06051-0.10918 0.09914-0.15621 0.11596-0.047036 0.01682-0.084029 0.01682-0.11098 0-0.026779-0.01682-0.039397-0.04961-0.037766-0.09828 0.00172-0.04875 0.026093-0.11012 0.073129-0.18394 0.016823-0.0303 0.071412-0.12025 0.16377-0.26977 0.092526-0.14952 0.21097-0.3411 0.35543-0.57464 0.14454-0.23363 0.30839-0.49911 0.49147-0.79652 0.18316-0.29741 0.3756-0.60906 0.57722-0.93505m-0.10669 0.01408c0.12428-0.20162 0.24865-0.40324 0.37302-0.60486 0.12437-0.20162 0.24531-0.39826 0.36298-0.58984 0.11759-0.19158 0.23106-0.37551 0.34024-0.55198 0.10918-0.17638 0.21089-0.34024 0.30505-0.49147 0.22179-0.3562 0.43173-0.69395 0.63009-1.0132-0.016909-0.06377-0.028582-0.126-0.035277-0.18651-0.00678-0.05038-0.00678-0.10248 0-0.1563 0.00669-0.05364 0.025234-0.09905 0.055447-0.13613 0.030213-0.03347 0.083171-0.06377 0.15879-0.09072 0.075618-0.02678 0.1563-0.04446 0.24196-0.05287 0.085746-0.0084 0.16892-0.0058 0.24951 0.0076 0.080682 0.01348 0.14119 0.04206 0.18153 0.08566 0.02017 0.0236 0.037766 0.0933 0.052958 0.20926 0.015021 0.11587 0.032702 0.26548 0.052872 0.44864 0.020171 0.18316 0.047036 0.39234 0.080682 0.6276 0.03356 0.23526 0.077248 0.48392 0.13106 0.74605 0.05373 0.26213 0.12257 0.53018 0.2066 0.80398 0.084029 0.27397 0.1866 0.54031 0.30753 0.79901m0.040598 0.06437c0.11424 0.15458 0.24702 0.29741 0.39826 0.42847 0.070554 0.06051 0.11424 0.11931 0.13106 0.17647 0.01674 0.05708 0.0051 0.10583-0.03528 0.14617-0.04034 0.04026-0.11012 0.06626-0.20926 0.07811-0.09905 0.01176-0.22599 0.0025-0.38049-0.02772-0.10763-0.020227-0.22942-0.096703-0.36547-0.2294-0.13621-0.1327-0.27818-0.30831-0.42598-0.52683" fill="#5c5c5b" stroke-width=".4" style="paint-order:stroke fill markers"/>
  <path d="m13.378 18.32c0.10446 0.02609 0.15664 0.07253 0.15664 0.1393v1.9542c0 0.08128-0.05219 0.13064-0.15664 0.14797h-0.0087c-0.08274 0-0.13424-0.05442-0.15458-0.16317v-1.8911c0.01313-0.1248 0.06746-0.1872 0.16325-0.1872" fill="#5c5c5b" stroke-width=".4" style="paint-order:stroke fill markers"/>
  <g stroke-width="4.6603">
   <g transform="matrix(.085832 0 0 -.085832 14.264 18.335)" style="paint-order:stroke fill markers">
    <path d="m0 0c1.2-0.304 1.8-0.845 1.8-1.622v-2.08c2.739 2.468 5.73 3.702 8.976 3.702 3.567 0 6.727-1.487 9.482-4.462 2.012-2.485 3.018-5.097 3.018-7.835v-12.043c0-0.829-0.6-1.361-1.8-1.598h-0.102c-1.2 0.22-1.8 0.82-1.8 1.801v10.598c0 4.749-2.045 7.876-6.136 9.381-0.997 0.254-1.885 0.38-2.662 0.38h-0.279c-3.432 0-6.085-1.775-7.961-5.324-0.491-1.082-0.736-2.815-0.736-5.198v-9.939c0-0.93-0.6-1.496-1.8-1.699h-0.101c-0.964 0-1.564 0.634-1.801 1.902v21.856c0.153 1.453 0.786 2.18 1.902 2.18" fill="#5c5c5b" stroke="#fffcfc" stroke-width="4.6603" style="paint-order:stroke fill markers"/>
   </g>
   <g transform="matrix(.085832 0 0 -.085832 16.921 18.32)" style="paint-order:stroke fill markers">
    <path d="m0 0c1.217-0.304 1.826-0.845 1.826-1.623v-22.768c0-0.947-0.609-1.522-1.826-1.724h-0.101c-0.964 0-1.564 0.634-1.8 1.901v22.033c0.151 1.454 0.785 2.181 1.901 2.181" fill="#5c5c5b" stroke="#fffcfc" stroke-width="4.6603" style="paint-order:stroke fill markers"/>
   </g>
   <g transform="matrix(.085832 0 0 -.085832 18.061 17.536)" style="paint-order:stroke fill markers">
    <path d="m0 0h0.355c1.116-0.237 1.674-0.735 1.674-1.496v-8.367h3.828l0.837 0.102c0.862 0 1.445-0.626 1.749-1.877 0-0.845-0.524-1.462-1.572-1.851l-1.394 0.102h-3.448v-13.666c0-2.384 0.777-3.846 2.332-4.387l2.13-0.177h1.039c0.812 0 1.336-0.592 1.573-1.775v-0.076c-0.203-1.183-0.795-1.775-1.775-1.775h-1.953c-2.958 0-5.155 1.614-6.592 4.843-0.253 0.794-0.38 1.724-0.38 2.789v14.224h-1.851l-1.496-0.102c-1.048 0.372-1.572 0.989-1.572 1.851 0.203 1.183 0.761 1.775 1.673 1.775v0.102l0.939-0.102h2.307v7.809c0.152 1.369 0.685 2.054 1.597 2.054" fill="#5c5c5b" stroke="#fffcfc" stroke-width="4.6603" style="paint-order:stroke fill markers"/>
   </g>
  </g>
  <g stroke-width="1.1651">
   <g transform="matrix(.085832 0 0 -.085832 17.449 21.203)" style="paint-order:stroke fill markers">
    <path d="m0 0c0 3.065-2.485 5.55-5.55 5.55s-5.55-2.485-5.55-5.55 2.485-5.55 5.55-5.55 5.55 2.485 5.55 5.55" fill="#fff" stroke="#fffcfc" stroke-width="1.1651" style="paint-order:stroke fill markers"/>
   </g>
   <g transform="matrix(.085832 0 0 -.085832 17.449 21.203)" style="paint-order:stroke fill markers">
    <path d="m0 0c0 3.065-2.485 5.55-5.55 5.55s-5.55-2.485-5.55-5.55 2.485-5.55 5.55-5.55 5.55 2.485 5.55 5.55z" fill="none" stroke="#fffcfc" stroke-linecap="butt" stroke-linejoin="miter" stroke-width="1.1651" style="paint-order:stroke fill markers"/>
   </g>
   <g transform="matrix(.085832 0 0 -.085832 -12.412 55.133)" style="paint-order:stroke fill markers">
    <g clip-path="url(#clipPath54-4)" stroke="#fffcfc" stroke-width="1.1651" style="paint-order:stroke fill markers">
     <g stroke="#fffcfc" stroke-width="1.1651" style="paint-order:stroke fill markers">
      <g stroke="#fffcfc" stroke-width="1.1651" style="paint-order:stroke fill markers">
       <path d="m380.04 463.39c-6.049-3.07-12.494-5.861-19.708-8.532-7.647-2.865-16.348-5.635-25.859-8.234-10.379-2.832-21.285-5.279-32.415-7.276-12.011-2.162-24.893-3.845-37.257-4.866-3.122-0.261-6.29-0.489-9.419-0.677l-2.233-0.128-2.691-0.139c-1.2-0.056-2.889-0.135-4.276-0.182-3.414-0.122-6.824-0.184-10.133-0.184-2.192 0-4.385 0.027-6.515 0.08-9.852 0.277-18.778 1.162-25.811 2.559-7.011 1.417-12.1 3.146-14.713 4.997-2.022 1.441-1.822 2.143-1.743 2.428 0.036 0.161 0.144 0.653 1.364 1.323 0.859 0.499 2.649 1.228 6.293 1.864l-0.252 1.781c-3.407-0.369-7.027-1.126-9.689-2.024-2.069-0.703-3.684-1.469-5.115-2.43-2.189-1.596-3.119-3.307-2.755-5.124 0.735-2.973 4.559-5.435 11.366-7.315 7.244-2.005 17.075-3.247 29.217-3.692 3.102-0.117 6.438-0.176 9.917-0.176 3.767 0 7.733 0.069 11.79 0.207 2.023 0.065 3.8 0.141 6.109 0.25l2.659 0.14 3.109 0.183c4.156 0.257 8.166 0.552 12.253 0.902 15.902 1.343 32.715 3.635 47.342 6.454 13.037 2.5 24.946 5.43 35.398 8.712 18.775 5.973 30.844 12.118 34.905 17.771l2.155 2.999z" fill="url(#linearGradient62)" stroke="#fffcfc" stroke-width="1.1651" style="paint-order:stroke fill markers"/>
      </g>
     </g>
    </g>
   </g>
  </g>
  <g transform="matrix(.085832 0 0 -.085832 10.795 19.41)" stroke-width="4.6603" style="paint-order:stroke fill markers">
   <path d="m0 0v-0.482c0-3.904 2.045-6.812 6.136-8.722 1.098-0.321 2.087-0.482 2.966-0.482h0.583c3.804 0 6.677 2.045 8.621 6.136 0.321 1.234 0.482 2.189 0.482 2.865v0.584c0 3.887-2.079 6.794-6.238 8.722-1.267 0.32-2.256 0.481-2.966 0.481h-0.38c-3.803 0-6.677-2.012-8.621-6.034-0.389-1.133-0.583-2.155-0.583-3.068m-2.003 22.895h0.279c1.149-0.253 1.724-0.803 1.724-1.648v-12.449c2.789 2.688 5.924 4.031 9.406 4.031 3.364 0 6.423-1.276 9.179-3.828 2.62-2.755 3.93-5.849 3.93-9.28 0-4.919-2.333-8.79-6.998-11.612-2.012-1.015-3.955-1.522-5.832-1.522h-0.76c-3.533 0-6.821 1.657-9.863 4.97-1.86 2.485-2.789 5.426-2.789 8.823v20.867c0 0.845 0.574 1.395 1.724 1.648" fill="#5c5c5b" stroke="#fffcfc" stroke-width="4.6603" style="paint-order:stroke fill markers"/>
  </g>
  <g transform="matrix(.085832 0 0 -.085832 13.844 17.521)" stroke-width="4.6603" style="paint-order:stroke fill markers">
   <path d="m0 0c0 3.065-2.485 5.55-5.55 5.55s-5.55-2.485-5.55-5.55 2.485-5.55 5.55-5.55 5.55 2.485 5.55 5.55" fill="#5c5c5b" stroke="#fffcfc" stroke-width="4.6603" style="paint-order:stroke fill markers"/>
  </g>
 </g>
</svg>
