<?xml version="1.0" encoding="UTF-8" standalone="no"?>
<svg
   xmlns:dc="http://purl.org/dc/elements/1.1/"
   xmlns:cc="http://creativecommons.org/ns#"
   xmlns:rdf="http://www.w3.org/1999/02/22-rdf-syntax-ns#"
   xmlns:svg="http://www.w3.org/2000/svg"
   xmlns="http://www.w3.org/2000/svg"
   xmlns:sodipodi="http://sodipodi.sourceforge.net/DTD/sodipodi-0.dtd"
   xmlns:inkscape="http://www.inkscape.org/namespaces/inkscape"
   width="24"
   height="24"
   viewBox="0 0 24 24"
   fill="none"
   stroke="currentColor"
   stroke-width="2"
   stroke-linecap="round"
   stroke-linejoin="round"
   class="feather feather-box"
   version="1.1"
   id="svg887"
   sodipodi:docname="stress.svg"
   inkscape:version="0.92.3 (2405546, 2018-03-11)">
  <metadata
     id="metadata893">
    <rdf:RDF>
      <cc:Work
         rdf:about="">
        <dc:format>image/svg+xml</dc:format>
        <dc:type
           rdf:resource="http://purl.org/dc/dcmitype/StillImage" />
        <dc:title></dc:title>
      </cc:Work>
    </rdf:RDF>
  </metadata>
  <defs
     id="defs891" />
  <sodipodi:namedview
     pagecolor="#ffffff"
     bordercolor="#666666"
     borderopacity="1"
     objecttolerance="10"
     gridtolerance="10"
     guidetolerance="10"
     inkscape:pageopacity="0"
     inkscape:pageshadow="2"
     inkscape:window-width="1920"
     inkscape:window-height="1016"
     id="namedview889"
     showgrid="false"
     showguides="false"
     inkscape:zoom="24.24787"
     inkscape:cx="11.100105"
     inkscape:cy="13.229329"
     inkscape:window-x="0"
     inkscape:window-y="27"
     inkscape:window-maximized="1"
     inkscape:current-layer="svg887" />
  <g
     id="g1499"
     transform="matrix(0.71672125,0,0,0.71672125,3.3993623,6.960495)">
    <path
       id="path881"
       d="m 12.89,1.45 8,4 A 2,2 0 0 1 22,7.24 v 9.53 a 2,2 0 0 1 -1.11,1.79 l -8,4 a 2,2 0 0 1 -1.79,0 l -8,-4 A 2,2 0 0 1 2,16.76 V 7.24 A 2,2 0 0 1 3.11,5.45 l 8,-4 a 2,2 0 0 1 1.78,0 z"
       inkscape:connector-curvature="0" />
    <polyline
       id="polyline883"
       points="2.32 6.16 12 11 21.68 6.16" />
    <line
       id="line885"
       y2="11"
       x2="12"
       y1="22.76"
       x1="12" />
  </g>
  <polygon
     transform="matrix(0.25258064,0.17685887,-0.28858799,0.41214637,20.910209,-2.6121332)"
     points="21,10 12,10 13,2 3,14 12,14 11,22 "
     id="polygon943" />
  <polygon
     transform="matrix(0.25258064,-0.17685887,0.28858799,0.41214637,-3.4772341,1.8848324)"
     points="12,10 13,2 3,14 12,14 11,22 21,10 "
     id="polygon943-0" />
  <polygon
     transform="matrix(0.30834403,0,0,0.50313781,8.2998716,-0.50325145)"
     points="12,10 13,2 3,14 12,14 11,22 21,10 "
     id="polygon943-3" />
</svg>
