<svg class="feather feather-box" width="24" height="24" fill="none" stroke="currentColor" stroke-linecap="round" stroke-linejoin="round" stroke-width="2" version="1.1" viewBox="0 0 24 24" xmlns="http://www.w3.org/2000/svg">
 <g transform="matrix(.71672 0 0 .71672 3.3994 6.9605)">
  <path d="m12.89 1.45 8 4a2 2 0 0 1 1.11 1.79v9.53a2 2 0 0 1-1.11 1.79l-8 4a2 2 0 0 1-1.79 0l-8-4a2 2 0 0 1-1.1-1.8v-9.52a2 2 0 0 1 1.11-1.79l8-4a2 2 0 0 1 1.78 0z"/>
  <polyline points="2.32 6.16 12 11 21.68 6.16"/>
  <line x1="12" x2="12" y1="22.76" y2="11"/>
 </g>
 <polygon transform="matrix(.25258 .17686 -.28859 .41215 20.91 -2.6121)" points="21 10 12 10 13 2 3 14 12 14 11 22"/>
 <polygon transform="matrix(.25258 -.17686 .28859 .41215 -3.4772 1.8848)" points="12 10 13 2 3 14 12 14 11 22 21 10"/>
 <polygon transform="matrix(.30834 0 0 .50314 8.2999 -.50325)" points="12 10 13 2 3 14 12 14 11 22 21 10"/>
</svg>
