<svg class="feather feather-box" width="24" height="24" fill="none" stroke="currentColor" stroke-linecap="round" stroke-linejoin="round" stroke-width="2" version="1.1" viewBox="0 0 24 24" xmlns="http://www.w3.org/2000/svg">
 <g transform="translate(1.3779 6.1862)" fill="#fff">
  <g transform="matrix(.5185 0 0 .5185 4.4001 .127)">
   <path d="m12.89 1.45 8 4a2 2 0 0 1 1.11 1.79v9.53a2 2 0 0 1-1.11 1.79l-8 4a2 2 0 0 1-1.79 0l-8-4a2 2 0 0 1-1.1-1.8v-9.52a2 2 0 0 1 1.11-1.79l8-4a2 2 0 0 1 1.78 0z"/>
   <polyline points="2.32 6.16 12 11 21.68 6.16"/>
   <line x1="12" x2="12" y1="22.76" y2="11"/>
  </g>
  <g transform="matrix(.5185 0 0 .5185 9.4192 2.6365)">
   <path d="m12.89 1.45 8 4a2 2 0 0 1 1.11 1.79v9.53a2 2 0 0 1-1.11 1.79l-8 4a2 2 0 0 1-1.79 0l-8-4a2 2 0 0 1-1.1-1.8v-9.52a2 2 0 0 1 1.11-1.79l8-4a2 2 0 0 1 1.78 0z"/>
   <polyline points="2.32 6.16 12 11 21.68 6.16"/>
   <line x1="12" x2="12" y1="22.76" y2="11"/>
  </g>
  <g transform="matrix(.5185 0 0 .5185 -.61893 2.6365)">
   <path d="m12.89 1.45 8 4a2 2 0 0 1 1.11 1.79v9.53a2 2 0 0 1-1.11 1.79l-8 4a2 2 0 0 1-1.79 0l-8-4a2 2 0 0 1-1.1-1.8v-9.52a2 2 0 0 1 1.11-1.79l8-4a2 2 0 0 1 1.78 0z"/>
   <polyline points="2.32 6.16 12 11 21.68 6.16"/>
   <line x1="12" x2="12" y1="22.76" y2="11"/>
  </g>
  <g transform="matrix(.5185 0 0 .5185 4.4001 -5.9705)">
   <path d="m12.89 1.45 8 4a2 2 0 0 1 1.11 1.79v9.53a2 2 0 0 1-1.11 1.79l-8 4a2 2 0 0 1-1.79 0l-8-4a2 2 0 0 1-1.1-1.8v-9.52a2 2 0 0 1 1.11-1.79l8-4a2 2 0 0 1 1.78 0z"/>
   <polyline points="2.32 6.16 12 11 21.68 6.16"/>
   <line x1="12" x2="12" y1="22.76" y2="11"/>
  </g>
  <g transform="matrix(.5185 0 0 .5185 9.4192 -3.461)">
   <path d="m12.89 1.45 8 4a2 2 0 0 1 1.11 1.79v9.53a2 2 0 0 1-1.11 1.79l-8 4a2 2 0 0 1-1.79 0l-8-4a2 2 0 0 1-1.1-1.8v-9.52a2 2 0 0 1 1.11-1.79l8-4a2 2 0 0 1 1.78 0z"/>
   <polyline points="2.32 6.16 12 11 21.68 6.16"/>
   <line x1="12" x2="12" y1="22.76" y2="11"/>
  </g>
  <g transform="matrix(.5185 0 0 .5185 -.61893 -3.461)">
   <path d="m12.89 1.45 8 4a2 2 0 0 1 1.11 1.79v9.53a2 2 0 0 1-1.11 1.79l-8 4a2 2 0 0 1-1.79 0l-8-4a2 2 0 0 1-1.1-1.8v-9.52a2 2 0 0 1 1.11-1.79l8-4a2 2 0 0 1 1.78 0z"/>
   <polyline points="2.32 6.16 12 11 21.68 6.16"/>
   <line x1="12" x2="12" y1="22.76" y2="11"/>
  </g>
  <g transform="matrix(.5185 0 0 .5185 4.4001 5.146)">
   <path d="m12.89 1.45 8 4a2 2 0 0 1 1.11 1.79v9.53a2 2 0 0 1-1.11 1.79l-8 4a2 2 0 0 1-1.79 0l-8-4a2 2 0 0 1-1.1-1.8v-9.52a2 2 0 0 1 1.11-1.79l8-4a2 2 0 0 1 1.78 0z"/>
   <polyline points="2.32 6.16 12 11 21.68 6.16"/>
   <line x1="12" x2="12" y1="22.76" y2="11"/>
  </g>
  <g transform="matrix(.5185 0 0 .5185 4.4001 -.95148)">
   <path d="m12.89 1.45 8 4a2 2 0 0 1 1.11 1.79v9.53a2 2 0 0 1-1.11 1.79l-8 4a2 2 0 0 1-1.79 0l-8-4a2 2 0 0 1-1.1-1.8v-9.52a2 2 0 0 1 1.11-1.79l8-4a2 2 0 0 1 1.78 0z"/>
   <polyline points="2.32 6.16 12 11 21.68 6.16"/>
   <line x1="12" x2="12" y1="22.76" y2="11"/>
  </g>
 </g>
</svg>
