<svg class="feather feather-thermometer" width="24" height="24" fill="none" stroke="currentColor" stroke-linecap="round" stroke-linejoin="round" stroke-width="2" version="1.1" viewBox="0 0 24 24" xmlns="http://www.w3.org/2000/svg">
 <g transform="translate(.50568 -.81289)">
  <g transform="matrix(.9833 0 0 1.0538 -6.5131 13.382)">
   <polyline transform="translate(6.3133 -11.625)" points="23 4 23 10 17 10"/>
   <polyline transform="translate(6.3133 -11.625)" points="1 20 1 14 7 14"/>
   <path d="m9.8233-2.6251a9 9 0 0 1 14.85-3.36l4.64 4.36m-22 4 4.64 4.36a9 9 0 0 0 14.85-3.36"/>
  </g>
  <g>
   <path d="m14.076 12.985v-8.8894a1.9737 1.9737 0 0 0-3.9473 0v8.8894a3.5526 3.5526 0 1 0 3.9473 0z" fill="#fafafa" stroke-width="1.5789"/>
   <ellipse cx="12.095" cy="15.832" rx="2.8205" ry="2.9178" fill="#da2929" stroke="none" style="paint-order:fill markers stroke"/>
   <rect x="10.902" y="8.497" width="2.3779" height="6.4853" fill="#da2929" stroke="none" style="paint-order:fill markers stroke"/>
  </g>
 </g>
 <g stroke-width=".35997">
  <path d="m19.837 1.1614 1.0187 1.0187a1.4399 1.4399 0 1 1-2.0356 0z"/>
  <path d="m2.0991 3.8556 1.0187 1.0187a1.4399 1.4399 0 1 1-2.0356 0z"/>
  <path d="m7.6579 8.2409 1.0187 1.0187a1.4399 1.4399 0 1 1-2.0356 0z"/>
 </g>
</svg>
