<?xml version="1.0" encoding="UTF-8" standalone="no"?>
<svg
   xmlns:dc="http://purl.org/dc/elements/1.1/"
   xmlns:cc="http://creativecommons.org/ns#"
   xmlns:rdf="http://www.w3.org/1999/02/22-rdf-syntax-ns#"
   xmlns:svg="http://www.w3.org/2000/svg"
   xmlns="http://www.w3.org/2000/svg"
   xmlns:sodipodi="http://sodipodi.sourceforge.net/DTD/sodipodi-0.dtd"
   xmlns:inkscape="http://www.inkscape.org/namespaces/inkscape"
   width="24"
   height="24"
   viewBox="0 0 24 24"
   fill="none"
   stroke="currentColor"
   stroke-width="2"
   stroke-linecap="round"
   stroke-linejoin="round"
   class="feather feather-thermometer"
   version="1.1"
   id="svg2633"
   sodipodi:docname="thermodynamics.svg"
   inkscape:version="0.92.3 (2405546, 2018-03-11)">
  <metadata
     id="metadata2639">
    <rdf:RDF>
      <cc:Work
         rdf:about="">
        <dc:format>image/svg+xml</dc:format>
        <dc:type
           rdf:resource="http://purl.org/dc/dcmitype/StillImage" />
        <dc:title></dc:title>
      </cc:Work>
    </rdf:RDF>
  </metadata>
  <defs
     id="defs2637" />
  <sodipodi:namedview
     pagecolor="#ffffff"
     bordercolor="#666666"
     borderopacity="1"
     objecttolerance="10"
     gridtolerance="10"
     guidetolerance="10"
     inkscape:pageopacity="0"
     inkscape:pageshadow="2"
     inkscape:window-width="1920"
     inkscape:window-height="1016"
     id="namedview2635"
     showgrid="false"
     inkscape:zoom="16.19043"
     inkscape:cx="-10.525976"
     inkscape:cy="11.311333"
     inkscape:window-x="0"
     inkscape:window-y="27"
     inkscape:window-maximized="1"
     inkscape:current-layer="svg2633" />
  <g
     id="g3888"
     transform="translate(0.505678,-0.81288719)">
    <g
       transform="matrix(0.98330026,0,0,1.0537518,-6.5131388,13.381849)"
       id="g3869">
      <polyline
         transform="translate(6.3132879,-11.625068)"
         points="23 4 23 10 17 10"
         id="polyline3288" />
      <polyline
         transform="translate(6.3132879,-11.625068)"
         points="1 20 1 14 7 14"
         id="polyline3290" />
      <path
         inkscape:connector-curvature="0"
         d="m 9.8232879,-2.6250679 a 9,9 0 0 1 14.8500001,-3.36 l 4.64,4.36 m -22.0000001,4.0000001 4.6400001,4.36 a 9,9 0 0 0 14.85,-3.36"
         id="path3292" />
    </g>
    <path
       inkscape:connector-curvature="0"
       style="fill:#fafafa;fill-opacity:1;stroke-width:1.57893753"
       id="path2631"
       d="M 14.07588,12.985236 V 4.0958176 a 1.9736722,1.9736722 0 0 0 -3.947344,0 v 8.8894184 a 3.5526095,3.5526095 0 1 0 3.947344,0 z" />
    <ellipse
       ry="2.9177504"
       rx="2.8204858"
       cy="15.831594"
       cx="12.095093"
       id="path3871"
       style="opacity:1;fill:#da2929;fill-opacity:1;fill-rule:nonzero;stroke:none;stroke-width:2.20662379;stroke-linecap:round;stroke-linejoin:round;stroke-miterlimit:4;stroke-dasharray:none;stroke-opacity:1;paint-order:fill markers stroke" />
    <rect
       y="8.497014"
       x="10.901502"
       height="6.4853129"
       width="2.3779483"
       id="rect3873"
       style="opacity:1;fill:#da2929;fill-opacity:1;fill-rule:nonzero;stroke:none;stroke-width:1.53874588;stroke-linecap:round;stroke-linejoin:round;stroke-miterlimit:4;stroke-dasharray:none;stroke-opacity:1;paint-order:fill markers stroke" />
  </g>
  <path
     inkscape:connector-curvature="0"
     d="m 19.836991,1.1613837 1.018704,1.0187035 a 1.4398639,1.4398639 0 1 1 -2.035607,0 z"
     id="path3952"
     style="stroke-width:0.35996598" />
  <path
     inkscape:connector-curvature="0"
     d="m 2.0991052,3.8555783 1.018704,1.0187035 a 1.4398639,1.4398639 0 1 1 -2.035607,0 z"
     id="path3952-7"
     style="stroke-width:0.35996598" />
  <path
     inkscape:connector-curvature="0"
     d="m 7.657945,8.240885 1.018704,1.0187035 a 1.4398639,1.4398639 0 1 1 -2.035607,0 z"
     id="path3952-6"
     style="stroke-width:0.35996598" />
</svg>
