<svg width="128px" height="128px" enable-background="new 0 0 128 128" version="1.1" viewBox="0 0 128 128" xml:space="preserve" xmlns="http://www.w3.org/2000/svg"><g transform="matrix(1.094 0 0 1.094 -6.0162 -6.0156)"><path d="m102.92 116.95 12.807-12.807-62.026-62.026c1.021-2.582 1.596-5.39 1.596-8.332-2e-3 -12.556-10.178-22.731-22.732-22.733h-8e-3l-0.045 1e-3v2e-3c-0.152 3e-3 -0.33 0.017-0.547 0.07-0.181 0.046-0.387 0.119-0.603 0.247-0.325 0.186-0.663 0.521-0.852 0.899-0.197 0.38-0.25 0.756-0.25 1.039 6e-3 0.438 0.102 0.704 0.178 0.913 0.162 0.393 0.318 0.607 0.48 0.836 0.305 0.409 0.654 0.791 1.074 1.226 0.73 0.75 1.667 1.618 2.676 2.522 2.246 2.009 4.853 4.172 6.051 5.158l1.361 11.231-8.104 8.135-11.23-1.388c-0.775-0.939-2.271-2.743-3.846-4.559-1.138-1.311-2.314-2.623-3.314-3.647-0.506-0.516-0.963-0.955-1.396-1.318-0.221-0.184-0.432-0.348-0.697-0.513-0.137-0.08-0.285-0.164-0.494-0.246-0.207-0.079-0.475-0.174-0.91-0.18-0.254-1e-3 -0.576 0.042-0.914 0.19-0.252 0.108-0.504 0.282-0.699 0.485-0.301 0.309-0.467 0.659-0.547 0.938-0.083 0.282-0.098 0.507-0.1 0.69 1e-3 12.56 10.175 22.736 22.733 22.738 2.943 1e-3 5.752-0.573 8.333-1.597z"/><polygon points="111 24.187 118.17 13.94 115.5 11.27 105.26 18.444 70.687 53.014 66.947 49.274 57.01 59.212 43.646 65.643 12.492 96.797 32.645 116.95 63.799 85.796 70.229 72.43 80.166 62.493 76.429 58.755"/></g></svg>
