<svg class="feather feather-box" width="24" height="24" fill="none" stroke="currentColor" stroke-linecap="round" stroke-linejoin="round" stroke-width="2" version="1.1" viewBox="0 0 24 24" xmlns="http://www.w3.org/2000/svg">
 <g fill="#000" stroke="none" aria-label="xy">
  <path d="m7.5414 8.788q0.49867 0.90933 1.0267 1.936 0.55733 1.0267 1.0853 2.0827 0.528 1.056 0.99733 2.112 0.46933 1.056 0.82133 2.024h-2.4933q-0.58667-1.7013-1.3787-3.2267-0.76267-1.5547-1.5253-2.904-0.73333 1.3493-1.496 2.904-0.73333 1.5253-1.32 3.2267h-2.4053q0.32267-0.968 0.792-1.9947 0.49867-1.056 1.0267-2.112 0.528-1.056 1.056-2.0533 0.55733-1.0267 1.056-1.936l-3.784-7.304h2.552l2.64 5.2213 2.6693-5.2213h2.464z"/>
  <path d="m17.749 13.745q0.85067-2.9333 1.5547-5.896 0.704-2.9627 1.3493-6.3067h2.4933q-0.44 2.1413-0.968 4.224-0.49867 2.0827-1.056 4.0187-0.528 1.936-1.0853 3.6667-0.528 1.7013-0.99733 3.1093-0.55733 1.6427-1.0853 2.7573-0.49867 1.144-1.1147 1.8187-0.58667 0.704-1.2907 0.99733-0.704 0.32267-1.672 0.32267-0.528 0-1.056-0.14667-0.528-0.11733-0.88-0.264l0.46933-2.0533q0.76267 0.32267 1.4373 0.32267 0.85066 0 1.3787-0.616 0.528-0.616 1.0267-1.848l0.29333-0.73333q-0.55733-1.5253-1.144-3.3733-0.55733-1.8773-1.1147-3.9013-0.528-2.024-1.0267-4.136-0.49867-2.1413-0.90933-4.1653h2.6693q0.23467 1.3787 0.55733 3.0213 0.32267 1.6427 0.67467 3.2853 0.38133 1.6427 0.76267 3.1973 0.38133 1.5253 0.73333 2.6987z"/>
 </g>
</svg>
